ply
format ascii 1.0
comment Created in Blender version 4.0.2
element vertex 81
property float x
property float y
property float z
property float s
property float t
element face 128
property list uchar uint vertex_indices
end_header
-0.45882392 -1.1177062 0.46126583 0.90037584 0.0018799901
-0.4012477 -1.1076683 0.5062957 0.9981203 0.09962404
-0.457163 -1.1179763 0.50722986 0.9031954 0.09680444
-0.457163 -1.0826769 0.75978506 0.9031954 0.63533854
-0.40014052 -1.0897036 0.6959046 0.99999994 0.50000024
-0.40014052 -1.0725937 0.7575374 0.99999994 0.6353384
-0.77438515 -1.1178077 0.7021696 0.36466166 0.50000036
-0.6946646 -1.1039091 0.7645183 0.5 0.63533854
-0.77438515 -1.1009307 0.7638543 0.36466163 0.6353384
-0.77438515 -1.1379828 0.51168954 0.3646617 0.09680426
-0.6946646 -1.1410518 0.465561 0.5 0
-0.6946646 -1.1414398 0.51246023 0.5 0.0968045
-0.77438515 -1.1287286 0.6391572 0.3646617 0.36466187
-0.6946646 -1.1395178 0.5761152 0.5 0.22932333
-0.6946646 -1.1317066 0.6398211 0.5 0.3646618
-0.93216604 -1.1104745 0.63508785 0.09680462 0.36466175
-0.8541061 -1.1291049 0.573794 0.22932333 0.22932324
-0.8541061 -1.1222509 0.6377132 0.22932333 0.3646618
-0.93216604 -1.1179763 0.50722986 0.09680462 0.09680423
-0.8541061 -1.1300654 0.4631121 0.22932333 0
-0.8541061 -1.1305679 0.5100367 0.22932333 0.09680429
-0.77438515 -1.0805546 0.82475907 0.3646617 0.7706769
-0.6946646 -1.0586262 0.88395405 0.5 0.90319574
-0.77438515 -1.0551689 0.8831832 0.36466163 0.9031956
-0.93216604 -1.0613632 0.8204809 0.09680459 0.77067685
-0.8541061 -1.0477538 0.88153034 0.22932336 0.9031954
-0.93216604 -1.0351624 0.87872374 0.09680459 0.9031955
-0.93216604 -1.1000328 0.69820714 0.09680459 0.5000001
-0.8541061 -1.0944535 0.7624103 0.22932336 0.63533854
-0.93216604 -1.0826768 0.75978506 0.09680459 0.6353383
-0.457163 -1.0351624 0.87872374 0.9031954 0.90319574
-0.40014052 -1.0509194 0.8181524 1 0.770677
-0.4012477 -1.0254335 0.87519115 0.9981203 0.90037584
-0.61494386 -1.0551689 0.8831832 0.6353383 0.90319556
-0.5352229 -1.0735095 0.8231884 0.7706766 0.770677
-0.5352229 -1.0477538 0.88153034 0.77067673 0.9031954
-0.61494386 -1.1009307 0.7638543 0.63533837 0.6353385
-0.5352229 -1.11172 0.70081264 0.7706767 0.50000036
-0.5352229 -1.0944535 0.7624103 0.7706767 0.63533854
-0.457163 -1.1169585 0.5710864 0.9031954 0.2293235
-0.40014052 -1.1003913 0.6328404 1 0.36466205
-0.457163 -1.1104745 0.63508785 0.9031954 0.36466193
-0.61494386 -1.1361498 0.57536453 0.6353383 0.22932345
-0.5352229 -1.1222509 0.6377132 0.7706767 0.3646618
-0.61494386 -1.1287289 0.6391572 0.6353383 0.36466187
-0.61494386 -1.1378409 0.4648453 0.63533837 0
-0.5352229 -1.1305677 0.5100367 0.77067673 0.09680432
-0.61494386 -1.1379827 0.51168954 0.6353383 0.09680426
-0.5352229 -1.129105 0.573794 0.7706766 0.22932327
-0.61494386 -1.117808 0.7021696 0.63533837 0.50000036
-0.6946646 -1.120516 0.70277345 0.5 0.50000036
-0.457163 -1.1000327 0.6982073 0.9031954 0.5000005
-0.61494386 -1.0805547 0.8247589 0.63533837 0.7706769
-0.6946646 -1.0839225 0.8255098 0.5 0.7706771
-0.61494386 -1.0351439 0.92553186 0.6353383 0.9999998
-0.5352229 -1.0273687 0.9237988 0.7706766 1
-0.6946646 -1.0383554 0.92624766 0.49999997 0.9999998
-0.4588239 -1.0153955 0.92022073 0.90037584 0.99812067
-0.40226686 -1.0031812 0.91666126 0.9963901 0.9963902
-0.457163 -1.0613631 0.8204809 0.9031954 0.7706771
-0.8541061 -1.0735093 0.8231884 0.2293233 0.77067685
-0.9891887 -1.0725937 0.7575374 0 0.6353385
-0.9891887 -1.0509195 0.8181524 2.9802322e-08 0.77067673
-0.9891887 -1.0897036 0.6959043 0 0.49999997
-0.8541061 -1.0273685 0.9237988 0.2293233 1
-0.93050516 -1.0153955 0.92022073 0.0996241 0.99812055
-0.98808134 -1.0254334 0.87519115 0.0018796623 0.90037584
-0.98706204 -1.0031812 0.91666126 0.003609866 0.99639
-0.77438515 -1.035144 0.92553186 0.36466163 0.9999999
-0.93216604 -1.1169585 0.5710864 0.09680462 0.22932324
-0.9891887 -1.1065148 0.5687582 5.9604645e-08 0.2293236
-0.98808134 -1.1076683 0.5062957 0.0018796921 0.099624306
-0.93050516 -1.1177063 0.46126583 0.0996241 0.0018797219
-0.8541061 -1.1117198 0.70081264 0.22932333 0.50000036
-0.9891887 -1.1003915 0.6328404 0 0.3646621
-0.77438515 -1.1361496 0.57536453 0.3646617 0.22932345
-0.77438515 -1.137841 0.4648453 0.3646617 0
-0.40014052 -1.1065148 0.5687582 1 0.22932327
-0.5352229 -1.1300654 0.4631121 0.77067673 5.9604645e-08
-0.4022669 -1.1051365 0.45930052 0.9963901 0.003609836
-0.98706204 -1.1051365 0.45930052 0.003609836 0.003610164
3 0 1 2
3 3 4 5
3 6 7 8
3 9 10 11
3 12 13 14
3 15 16 17
3 18 19 20
3 21 22 23
3 24 25 26
3 27 28 29
3 30 31 32
3 33 34 35
3 36 37 38
3 39 40 41
3 42 43 44
3 45 46 47
3 47 48 42
3 11 42 13
3 10 47 11
3 44 37 49
3 14 49 50
3 13 44 14
3 41 4 51
3 43 51 37
3 48 41 43
3 52 38 34
3 53 36 52
3 7 49 36
3 54 35 55
3 56 33 54
3 22 52 33
3 57 32 58
3 55 30 57
3 35 59 30
3 29 60 24
3 61 24 62
3 63 29 61
3 26 64 65
3 66 65 67
3 62 26 66
3 23 56 68
3 25 68 64
3 60 23 25
3 69 20 16
3 70 18 69
3 71 72 18
3 27 17 73
3 63 15 27
3 74 69 15
3 6 14 50
3 73 12 6
3 17 75 12
3 75 11 13
3 16 9 75
3 20 76 9
3 8 53 21
3 28 21 60
3 73 8 28
3 59 5 31
3 34 3 59
3 38 51 3
3 2 77 39
3 46 39 48
3 78 2 46
3 0 79 1
3 3 51 4
3 6 50 7
3 9 76 10
3 12 75 13
3 15 69 16
3 18 72 19
3 21 53 22
3 24 60 25
3 27 73 28
3 30 59 31
3 33 52 34
3 36 49 37
3 39 77 40
3 42 48 43
3 45 78 46
3 47 46 48
3 11 47 42
3 10 45 47
3 44 43 37
3 14 44 49
3 13 42 44
3 41 40 4
3 43 41 51
3 48 39 41
3 52 36 38
3 53 7 36
3 7 50 49
3 54 33 35
3 56 22 33
3 22 53 52
3 57 30 32
3 55 35 30
3 35 34 59
3 29 28 60
3 61 29 24
3 63 27 29
3 26 25 64
3 66 26 65
3 62 24 26
3 23 22 56
3 25 23 68
3 60 21 23
3 69 18 20
3 70 71 18
3 71 80 72
3 27 15 17
3 63 74 15
3 74 70 69
3 6 12 14
3 73 17 12
3 17 16 75
3 75 9 11
3 16 20 9
3 20 19 76
3 8 7 53
3 28 8 21
3 73 6 8
3 59 3 5
3 34 38 3
3 38 37 51
3 2 1 77
3 46 2 39
3 78 0 2
