ply
format ascii 1.0
comment Created in Blender version 4.0.2
element vertex 147
property float x
property float y
property float z
property float s
property float t
element face 141
property list uchar uint vertex_indices
end_header
0 0.9999999 0 0.79474944 0.7605778
0.6123724 0.6123724 -0.5 0.9260179 0.87719333
0 0.8660253 -0.5 0.7945161 0.86380386
0 0.49999994 0.8660254 0.8143223 0.6012813
0.6123724 0.6123724 0.5 0.9423852 0.577321
0 0.8660253 0.5 0.8493828 0.6710495
0.35355338 0.35355338 -0.8660254 0.88938206 0.9612451
0 0.49999994 -0.8660254 0.81345946 0.9535147
0 0.8660253 0.5 0.81409687 0.6714959
0.70710677 0.70710677 0 0.9465946 0.77603865
0 0 1 0.77369475 0.5084407
0.35355338 0.35355338 0.8660254 0.86801726 0.5471671
0 0 -1 0.86213577 0.16496979
0 0.49999994 -0.8660254 0.95019954 0.12656605
0.35355338 0.35355338 -0.8660254 0.94883513 0.2027849
0.6123724 0.6123724 -0.5 0.5702731 0.35352907
0.49999997 0 -0.8660254 0.6498498 0.23607619
0.35355338 0.35355338 -0.8660254 0.6545556 0.29747584
0.6123724 0.6123724 0.5 0.37622166 0.33693242
0.99999994 0 0 0.45898417 0.24517184
0.70710677 0.70710677 0 0.4683958 0.36797118
0.49999997 0 0.8660254 0.86801726 0.47089592
0.49999997 0 -0.8660254 0.8944622 0.2560853
0.8660253 0 -0.5 0.5621224 0.24718174
0.8660253 0 0.5 0.9423852 0.4452154
0.6123724 -0.6123724 -0.5772722 0.59211195 0.11830515
0.35355335 -0.35355335 -0.8660254 0.65850705 0.16092883
0.8660253 0 0.5 0.36807093 0.23058508
0.7071067 -0.7071067 0.20014755 0.4374597 0.09155536
0.35355335 -0.35355335 0.8660254 0.8143223 0.41714633
0.35355335 -0.35355335 -0.8660254 0.8189319 0.2552446
0.7071067 -0.7071067 -0.19980937 0.5150719 0.09819331
0.6123724 -0.6123724 0.5772722 0.8478489 0.35159808
0 -0.81986874 -0.60550076 0.70035195 0.22194046
0 -0.49999994 -0.8660254 0.7664886 0.2007553
0.6123724 -0.6123724 0.5772722 0.36807093 0.09914357
0 -0.9999999 0.3089556 0.45024335 3.6575887e-09
0 -0.49999994 0.8660254 0.7383862 0.41740412
0 -0.9999999 -0.29623118 0.5676807 0.010044082
0 -0.81986874 -0.60550076 0.62668836 0.04996145
0 -0.81986874 0.60550076 0.7192683 0.36034164
0 -0.9999999 0.3089556 0.07816566 0.48672688
-0.6123724 -0.6123724 0.5772722 0.1281968 0.5128452
-0.7071067 -0.7071067 0.20020704 0.103927314 0.54367787
-0.35355335 -0.35355335 0.8660254 0.6846913 0.47151825
-0.35355335 -0.35355335 -0.8660254 0.7678531 0.124536455
0 -0.9999999 -0.29623118 0.6585071 0.2322823
-0.6123724 -0.6123724 -0.5772722 0.69343686 0.09307404
0 -0.81986874 0.60550076 0.107167155 0.47008786
-0.35355335 -0.35355335 0.8660254 0.16237403 0.48516488
-0.49999994 0 0.8660254 0.6846913 0.54778945
-0.49999994 0 -0.8660254 0.8222259 0.07123606
-0.7071067 -0.7071067 -0.19980937 0.086592965 0.5741919
-0.8660253 0 -0.5 0.13793208 0.6293225
-0.6123724 -0.6123724 -0.5772722 0.07816565 0.6009161
-0.49999994 0 0.8660254 0.19494694 0.5049685
-0.8660253 0 0.5 0.1812662 0.5530406
-0.9999999 0 0 0.16039732 0.59855735
-0.35355335 0.35355335 -0.8660254 0.8977563 0.072076745
-0.6123724 0.6123724 -0.5 0.19132765 0.6356945
-0.6123724 0.6123724 0.5 0.23466176 0.5594126
-0.8660253 0 -0.5 0.7854265 -1.390144e-08
-0.7071067 0.7071067 0 0.2220532 0.605915
-0.35355335 0.35355335 0.8660254 0.7383862 0.6015391
-0.7071067 0.7071067 0 0.68469125 0.77603865
-0.6123724 0.6123724 -0.5 0.69920295 0.8771933
-0.6123724 0.6123724 0.5 0.71785766 0.6714959
-0.35355335 0.35355335 -0.8660254 0.7584304 0.96124506
-0.6123724 0.6123724 0.5 0.71878374 0.6848854
0.7071067 -0.7071067 0.20014755 0.43716112 0.43732834
0 -0.9999999 0.3089556 0.47946382 0.39385206
0 0.9999999 0 0.54007953 0.5405015
-0.7071067 0.7071067 0 0.58199215 0.49824622
-0.7071067 -0.7071067 -0.19980937 0.5376306 0.39924353
-0.9999999 0 0 0.5812745 0.43880647
-0.7071067 -0.7071067 -0.19980937 0.43889198 0.5611258
0 -0.9999999 -0.29623118 0.5089673 0.5612893
0 0.9999999 0 0.43889198 0.7270288
-0.7071067 -0.7071067 0.20020704 0.5390649 0.39475435
0.70710677 0.70710677 0 0.508554 0.72636646
0.7071067 -0.7071067 -0.19980937 0.55806327 0.6090883
0.99999994 0 0 0.5575616 0.676805
0.70710677 0.70710677 0 0.48008856 0.5408196
0.99999994 0 0 0.43716112 0.49901426
0.6123724 0.6123724 0.5 0.94559866 0.6848854
0.6123724 -0.6123724 -0.5772722 0.7819079 0.31946722
0 -0.9999999 0.3089556 0.7114766 0.32921627
-0.7071067 -0.7071067 -0.19980937 0.6585071 0.078902446
0 -0.49999994 0.8660254 0.14713694 0.46083716
-0.35355335 0.35355335 0.8660254 0.22577488 0.5086474
-0.6123724 0.6123724 -0.5 0.916249 0.0014560955
-0.7060655 -0.70687014 0.20020704 0.5389972 0.39480263
0.5754416 -0.1691384 0.75292534 0.31282735 0.5276927
0.6383158 -0.28855428 0.6824104 0.3370854 0.51678145
0.66400117 -0.15093565 0.671378 0.32563522 0.5423379
0.730223 -0.21117966 0.5888587 0.3437483 0.54169226
0.7120608 -0.30849072 0.5966598 0.35184482 0.52362114
0.5164212 -0.25512493 0.7857317 0.31282735 0.50633556
0.55727935 -0.26644948 0.76072645 0.32092386 0.50962156
0.73531556 -0.31458032 0.55370605 0.35655627 0.5103506
0.730223 -0.21117966 0.5888587 0.359571 0.4901317
0.7120608 -0.30849072 0.5966598 0.36383483 0.5094404
0.6762951 -0.40056688 0.5865123 0.35655624 0.5047769
0.52151364 -0.3585256 0.75057894 0.32563525 0.49077728
0.6762951 -0.40056688 0.5865123 0.36383483 0.5291654
0.5877356 -0.4187696 0.6680597 0.34374836 0.49013165
0.6762951 -0.40056688 0.5865123 0.31282732 0.55773723
0.6134209 -0.281151 0.6570273 0.33692232 0.56797457
0.6944575 -0.3032558 0.5787113 0.32088703 0.57579595
0.52151364 -0.3585256 0.75057894 0.34348023 0.54233795
0.5164212 -0.25512493 0.7857317 0.35617715 0.55750126
0.5396761 -0.26121455 0.74277794 0.3515399 0.5603967
0.73531556 -0.31458032 0.55370605 0.31282732 0.5792791
0.5877356 -0.4187696 0.6680597 0.32552415 0.5424357
0.5754416 -0.1691384 0.75292534 0.35617715 0.57904315
0.66400117 -0.15093565 0.671378 0.34348032 0.5943447
0.730223 -0.21117966 0.5888587 0.32552424 0.59444237
-0.5699352 -0.1691384 0.75292534 0.32529235 0.43192703
-0.6328094 -0.28855428 0.6824104 0.3354823 0.460383
-0.6584948 -0.15093565 0.671378 0.3132177 0.44758877
-0.7247166 -0.21117966 0.5888587 0.31282738 0.47112384
-0.7065544 -0.30849072 0.5966598 0.3285708 0.48017073
-0.5699352 -0.1691384 0.75292534 0.36012205 0.56804717
-0.5109148 -0.25512493 0.7857317 0.35655627 0.5472984
-0.55177295 -0.26644948 0.76072645 0.36421394 0.5486749
-0.72980917 -0.31458032 0.55370605 0.32435 0.48874575
-0.6328094 -0.28855428 0.6824104 0.34103575 0.45667705
-0.6707887 -0.40056688 0.5865123 0.35544863 0.47633082
-0.7065544 -0.30849072 0.5966598 0.34103575 0.47906798
-0.51600724 -0.3585256 0.75057894 0.36421394 0.5291653
-0.6707887 -0.40056688 0.5865123 0.3410358 0.4901317
-0.51600724 -0.3585256 0.75057894 0.35708869 0.43192697
-0.5822292 -0.4187696 0.6680597 0.36141863 0.45280617
-0.6707887 -0.40056688 0.5865123 0.31282735 0.4163868
-0.6079145 -0.281151 0.6570273 0.33827052 0.40358755
-0.6889511 -0.3032558 0.5787113 0.33081838 0.42398843
-0.51600724 -0.3585256 0.75057894 0.32801604 0.37507316
-0.5109148 -0.25512493 0.7857317 0.34949613 0.3735006
-0.5341697 -0.26121455 0.74277794 0.34600708 0.3826748
-0.72980917 -0.31458032 0.55370605 0.32801604 0.431927
-0.5822292 -0.4187696 0.6680597 0.31282735 0.3928372
-0.5699352 -0.1691384 0.75292534 0.36468482 0.38904077
-0.6584948 -0.15093565 0.671378 0.36468482 0.41259038
-0.7247166 -0.21117966 0.5888587 0.3494961 0.43035442
-0.55177295 -0.26644948 0.76072645 0.3410358 0.4409739
-0.55177295 -0.26644948 0.76072645 0.3426758 0.4346641
0.7077193 -0.7050252 0.20014755 0 0
3 0 1 2
3 3 4 5
3 2 6 7
3 8 9 0
3 3 10 11
3 12 13 14
3 15 16 17
3 18 19 20
3 11 10 21
3 12 14 22
3 20 23 15
3 11 24 4
3 16 25 26
3 27 28 19
3 21 10 29
3 12 22 30
3 23 31 25
3 21 32 24
3 30 33 34
3 35 36 28
3 29 10 37
3 12 30 34
3 25 38 39
3 29 40 32
3 41 42 43
3 37 10 44
3 12 34 45
3 46 47 33
3 48 49 42
3 33 45 34
3 44 10 50
3 12 45 51
3 52 53 54
3 42 55 56
3 47 51 45
3 43 56 57
3 12 51 58
3 57 59 53
3 55 60 56
3 61 58 51
3 56 62 57
3 50 10 63
3 12 58 13
3 64 2 65
3 63 5 66
3 65 7 67
3 68 0 64
3 63 10 3
3 69 70 71
3 72 73 74
3 71 73 72
3 75 76 77
3 72 78 74
3 71 78 72
3 79 80 81
3 77 80 79
3 80 77 76
3 69 82 83
3 69 71 82
3 0 9 1
3 3 11 4
3 2 1 6
3 8 84 9
3 15 23 16
3 18 27 19
3 20 19 23
3 11 21 24
3 16 23 25
3 27 35 28
3 23 19 31
3 21 29 32
3 30 85 33
3 32 40 86
3 25 31 38
3 29 37 40
3 41 48 42
3 46 87 47
3 48 88 49
3 33 47 45
3 52 57 53
3 42 49 55
3 47 61 51
3 43 42 56
3 57 62 59
3 55 89 60
3 61 90 58
3 56 60 62
3 64 0 2
3 63 3 5
3 65 2 7
3 68 8 0
3 78 71 70
3 70 78 91
3 92 93 94
3 95 93 96
3 92 97 98
3 99 100 101
3 93 102 96
3 98 97 103
3 99 101 104
3 93 103 105
3 106 107 108
3 109 110 111
3 112 106 108
3 109 107 113
3 107 114 115
3 107 116 108
3 111 110 114
3 112 108 116
3 92 98 93
3 95 94 93
3 93 105 102
3 93 98 103
3 106 113 107
3 109 111 107
3 107 111 114
3 107 115 116
3 117 118 119
3 120 118 121
3 122 123 124
3 125 120 121
3 126 127 128
3 124 123 129
3 125 121 130
3 126 131 132
3 133 134 135
3 136 137 138
3 139 133 135
3 136 134 140
3 134 141 142
3 134 143 135
3 138 137 141
3 139 135 143
3 117 144 118
3 120 119 118
3 126 132 127
3 126 145 131
3 133 140 134
3 136 138 134
3 134 138 141
3 134 142 143
