ply
format ascii 1.0
comment Created in Blender version 4.0.2
element vertex 302
property float x
property float y
property float z
property float s
property float t
element face 288
property list uchar uint vertex_indices
end_header
-1.0805268 -0.164014 -0.339901 0.08900516 0.2544405
-0.9345539 -0.164014 0.642545 0.11111525 0.5059287
-1.0805268 -0.164014 0.773757 0.08900516 0.53951657
-0.82794493 -0.164014 0.773757 0.12726302 0.53951657
-0.64963084 -0.164014 0.749462 0.15427174 0.53329754
-0.5195978 -0.164014 0.677808 0.17396747 0.5149554
-0.8017029 -0.164014 0.642545 0.13123782 0.5059287
-0.6971689 -0.164014 0.626323 0.1470713 0.50177616
-0.43999988 -0.164014 0.560641 0.18602394 0.48496276
-0.9345539 -0.164014 0.186585 0.11111525 0.3892113
-0.6223119 -0.164014 0.579195 0.15840967 0.48971227
-0.5772849 -0.164014 0.503466 0.16522977 0.47032708
-0.41298884 -0.164014 0.399804 0.19011523 0.44379145
-0.56224185 -0.164014 0.401444 0.16750829 0.44421124
-0.5797449 -0.164014 0.302549 0.16485718 0.4188959
-0.4407429 -0.164014 0.24745 0.18591139 0.4047916
-0.62846285 -0.164014 0.224104 0.157478 0.39881545
-0.5181629 -0.164014 0.128155 0.1741848 0.37425426
-0.70270485 -0.164014 0.172413 0.14623277 0.3855835
-0.9008029 -0.164014 0.172465 0.11622742 0.3855968
-0.9345539 -0.164014 0.055374 0.11111525 0.35562366
-0.8662829 -0.164014 0.162188 0.12145607 0.38296607
-0.79678184 -0.164014 0.153782 0.1319832 0.38081428
-0.8314559 -0.164014 0.15591 0.12673123 0.38135907
-0.63648385 -0.164014 0.050377 0.15626308 0.35434455
-0.9345539 -0.164014 -0.339901 0.11111525 0.2544405
-0.8946529 -0.164014 0.040561 0.11715895 0.35183182
-0.7869409 -0.164014 0.022571 0.1334738 0.3472267
-0.85767287 -0.164014 0.030362 0.122760214 0.34922105
-0.8222299 -0.164014 0.024467 0.12812865 0.34771204
-1.0805268 0.164014 -0.339901 0.08900516 0.2544405
-1.0805268 0.164014 0.773757 0.08900516 0.53951657
-0.9345539 0.164014 0.642545 0.11111525 0.5059287
-0.82794493 0.164014 0.773757 0.12726302 0.53951657
-0.64963084 0.164014 0.749462 0.15427174 0.53329754
-0.5195978 0.164014 0.677808 0.17396747 0.5149554
-0.8017029 0.164014 0.642545 0.13123782 0.5059287
-0.6971689 0.164014 0.626323 0.1470713 0.50177616
-0.43999988 0.164014 0.560641 0.18602394 0.48496276
-0.9345539 0.164014 0.186585 0.11111525 0.38921127
-0.6223119 0.164014 0.579195 0.15840967 0.48971227
-0.5772849 0.164014 0.503466 0.16522977 0.47032708
-0.41298884 0.164014 0.399804 0.19011523 0.44379145
-0.56224185 0.164014 0.401444 0.16750829 0.44421124
-0.5797449 0.164014 0.302549 0.16485718 0.4188959
-0.4407429 0.164014 0.24745 0.18591139 0.4047916
-0.62846285 0.164014 0.224104 0.157478 0.39881542
-0.5181629 0.164014 0.128155 0.1741848 0.37425426
-0.70270485 0.164014 0.172413 0.14623277 0.3855835
-0.9008029 0.164014 0.172465 0.11622742 0.3855968
-0.9345539 0.164014 0.055374 0.11111525 0.35562366
-0.8662829 0.164014 0.162188 0.12145607 0.38296607
-0.79678184 0.164014 0.153782 0.1319832 0.38081428
-0.8314559 0.164014 0.15591 0.12673123 0.38135904
-0.63648385 0.164014 0.050377 0.15626308 0.35434452
-0.9345539 0.164014 -0.339901 0.11111525 0.2544405
-0.8946529 0.164014 0.040561 0.11715895 0.3518318
-0.7869409 0.164014 0.022571 0.1334738 0.3472267
-0.85767287 0.164014 0.030362 0.122760214 0.34922105
-0.8222299 0.164014 0.024467 0.12812865 0.34771204
-1.0805268 -0.164014 0.773757 0.08900516 0.53951657
-1.0805268 0.164014 -0.339901 0.08900516 0.2544405
-1.0805268 -0.164014 -0.339901 0.08900516 0.2544405
-0.82794493 -0.164014 0.773757 0.12726302 0.53951657
-1.0805268 0.164014 0.773757 0.08900516 0.53951657
-0.64963084 -0.164014 0.749462 0.15427174 0.53329754
-0.82794493 0.164014 0.773757 0.12726302 0.53951657
-0.5195978 -0.164014 0.677808 0.17396747 0.5149554
-0.64963084 0.164014 0.749462 0.15427174 0.53329754
-0.43999988 -0.164014 0.560641 0.18602394 0.48496276
-0.5195978 0.164014 0.677808 0.17396747 0.5149554
-0.41298884 -0.164014 0.399804 0.19011523 0.44379145
-0.43999988 0.164014 0.560641 0.18602394 0.48496276
-0.4407429 -0.164014 0.24745 0.18591139 0.4047916
-0.41298884 0.164014 0.399804 0.19011523 0.44379145
-0.5181629 -0.164014 0.128155 0.1741848 0.37425426
-0.4407429 0.164014 0.24745 0.18591139 0.4047916
-0.63648385 -0.164014 0.050377 0.15626308 0.35434455
-0.5181629 0.164014 0.128155 0.1741848 0.37425426
-0.7869409 -0.164014 0.022571 0.1334738 0.3472267
-0.63648385 0.164014 0.050377 0.15626308 0.35434452
-0.8222299 -0.164014 0.024467 0.12812865 0.34771204
-0.7869409 0.164014 0.022571 0.1334738 0.3472267
-0.85767287 -0.164014 0.030362 0.122760214 0.34922105
-0.8222299 0.164014 0.024467 0.12812865 0.34771204
-0.8946529 -0.164014 0.040561 0.11715895 0.35183182
-0.85767287 0.164014 0.030362 0.122760214 0.34922105
-0.9345539 -0.164014 0.055374 0.11111525 0.35562366
-0.8946529 0.164014 0.040561 0.11715895 0.3518318
-0.9345539 -0.164014 -0.339901 0.11111525 0.2544405
-0.9345539 0.164014 0.055374 0.11111525 0.35562366
-0.9345539 0.164014 -0.339901 0.11111525 0.2544405
-0.8662829 -0.164014 0.162188 0.12145607 0.38296607
-0.9008029 0.164014 0.172465 0.11622742 0.3855968
-0.9008029 -0.164014 0.172465 0.11622742 0.3855968
-0.8314559 -0.164014 0.15591 0.12673123 0.38135907
-0.8662829 0.164014 0.162188 0.12145607 0.38296607
-0.79678184 -0.164014 0.153782 0.1319832 0.38081428
-0.8314559 0.164014 0.15591 0.12673123 0.38135904
-0.70270485 -0.164014 0.172413 0.14623277 0.3855835
-0.79678184 0.164014 0.153782 0.1319832 0.38081428
-0.62846285 -0.164014 0.224104 0.157478 0.39881545
-0.70270485 0.164014 0.172413 0.14623277 0.3855835
-0.5797449 -0.164014 0.302549 0.16485718 0.4188959
-0.62846285 0.164014 0.224104 0.157478 0.39881542
-0.56224185 -0.164014 0.401444 0.16750829 0.44421124
-0.5797449 0.164014 0.302549 0.16485718 0.4188959
-0.5772849 -0.164014 0.503466 0.16522977 0.47032708
-0.56224185 0.164014 0.401444 0.16750829 0.44421124
-0.6223119 -0.164014 0.579195 0.15840967 0.48971227
-0.5772849 0.164014 0.503466 0.16522977 0.47032708
-0.6971689 -0.164014 0.626323 0.1470713 0.50177616
-0.6223119 0.164014 0.579195 0.15840967 0.48971227
-0.8017029 -0.164014 0.642545 0.13123782 0.5059287
-0.6971689 0.164014 0.626323 0.1470713 0.50177616
-0.9345539 -0.164014 0.642545 0.11111525 0.5059287
-0.8017029 0.164014 0.642545 0.13123782 0.5059287
-0.9345539 -0.164014 0.186585 0.11111525 0.3892113
-0.9345539 0.164014 0.642545 0.11111525 0.5059287
-0.9345539 0.164014 0.186585 0.11111525 0.38921127
-0.14764589 -0.161123 0.746854 0.43209827 0.61266947
0.16012412 -0.161123 0.74776 0.47764745 0.6128961
0.003105104 -0.161123 0.775277 0.45440906 0.6197786
0.28406313 -0.161123 0.671151 0.49599013 0.5937348
-0.2687909 -0.161123 0.668734 0.4141691 0.59313023
0.0014930964 -0.161123 0.646378 0.45417047 0.5875386
0.10050911 -0.161123 0.628327 0.4688246 0.5830237
0.3654051 -0.161123 0.554362 0.50802857 0.56452376
-0.3494529 -0.161123 0.551643 0.40223134 0.56384367
-0.092108905 -0.161123 0.628353 0.4403176 0.5830302
-0.16607487 -0.161123 0.578304 0.42937082 0.5705121
0.17852813 -0.161123 0.578102 0.4803712 0.5704615
-0.21466386 -0.161123 0.502274 0.42217976 0.5514956
0.22965911 -0.161123 0.501594 0.48793846 0.5513255
0.39463413 -0.161123 0.406305 0.5123544 0.52749205
-0.3787579 -0.161123 0.406305 0.39789426 0.52749205
-0.23213488 -0.161123 0.406305 0.4195941 0.52749205
0.24801213 -0.161123 0.404693 0.49065468 0.5270888
-0.35035986 -0.161123 0.252583 0.4020971 0.48904338
-0.21511686 -0.161123 0.301952 0.42211273 0.5013915
0.3660851 -0.161123 0.249864 0.5081292 0.48836333
0.23079214 -0.161123 0.299233 0.4881062 0.5007114
-0.16728288 -0.161123 0.221617 0.42919207 0.48129827
0.18154913 -0.161123 0.219603 0.4808183 0.48079452
-0.27120787 -0.161123 0.131187 0.4138114 0.4586801
0.28587613 -0.161123 0.12877 0.49625844 0.45807552
-0.093468904 -0.161123 0.169982 0.44011635 0.4683834
0.10390711 -0.161123 0.169277 0.46932748 0.4682071
0.0014930964 -0.161123 0.15173 0.45417047 0.46381825
-0.15036488 -0.161123 0.051481 0.43169588 0.43874416
0.16216314 -0.161123 0.050575 0.47794923 0.43851757
0.003105104 -0.161123 0.022831 0.45440906 0.4315783
-0.14764589 0.161123 0.746854 0.43209827 0.61266947
0.003105104 0.161123 0.775277 0.45440906 0.6197786
0.16012412 0.161123 0.74776 0.47764745 0.6128961
0.28406313 0.161123 0.671151 0.49599013 0.5937348
-0.2687909 0.161123 0.668734 0.4141691 0.59313023
0.0014930964 0.161123 0.646378 0.45417047 0.5875386
0.10050911 0.161123 0.628327 0.4688246 0.5830237
0.3654051 0.161123 0.554362 0.50802857 0.56452376
-0.3494529 0.161123 0.551643 0.40223134 0.56384367
-0.092108905 0.161123 0.628353 0.4403176 0.5830302
-0.16607487 0.161123 0.578304 0.42937082 0.5705121
0.17852813 0.161123 0.578102 0.4803712 0.5704615
-0.21466386 0.161123 0.502274 0.42217976 0.5514956
0.22965911 0.161123 0.501594 0.48793846 0.5513255
0.39463413 0.161123 0.406305 0.5123544 0.52749205
-0.3787579 0.161123 0.406305 0.39789426 0.52749205
-0.23213488 0.161123 0.406305 0.4195941 0.52749205
0.24801213 0.161123 0.404693 0.49065468 0.5270888
-0.35035986 0.161123 0.252583 0.4020971 0.48904338
-0.21511686 0.161123 0.301952 0.42211273 0.5013915
0.3660851 0.161123 0.249864 0.5081292 0.48836333
0.23079214 0.161123 0.299233 0.4881062 0.5007114
-0.16728288 0.161123 0.221617 0.42919207 0.48129824
0.18154913 0.161123 0.219603 0.4808183 0.4807945
-0.27120787 0.161123 0.131187 0.4138114 0.4586801
0.28587613 0.161123 0.12877 0.49625844 0.45807552
-0.093468904 0.161123 0.169982 0.44011635 0.4683834
0.10390711 0.161123 0.169277 0.46932748 0.46820706
0.0014930964 0.161123 0.15173 0.45417047 0.46381825
-0.15036488 0.161123 0.051481 0.43169588 0.43874416
0.16216314 0.161123 0.050575 0.47794923 0.43851757
0.003105104 0.161123 0.022831 0.45440906 0.4315783
0.28587613 -0.161123 0.12877 0.49625844 0.45807552
0.3660851 0.161123 0.249864 0.5081292 0.48836333
0.3660851 -0.161123 0.249864 0.5081292 0.48836333
0.16216314 -0.161123 0.050575 0.47794923 0.43851757
0.28587613 0.161123 0.12877 0.49625844 0.45807552
0.003105104 -0.161123 0.022831 0.45440906 0.4315783
0.16216314 0.161123 0.050575 0.47794923 0.43851757
-0.15036488 -0.161123 0.051481 0.43169588 0.43874416
0.003105104 0.161123 0.022831 0.45440906 0.4315783
-0.27120787 -0.161123 0.131187 0.4138114 0.4586801
-0.15036488 0.161123 0.051481 0.43169588 0.43874416
-0.35035986 -0.161123 0.252583 0.4020971 0.48904338
-0.27120787 0.161123 0.131187 0.4138114 0.4586801
-0.3787579 -0.161123 0.406305 0.39789426 0.52749205
-0.35035986 0.161123 0.252583 0.4020971 0.48904338
-0.3494529 -0.161123 0.551643 0.40223134 0.56384367
-0.3787579 0.161123 0.406305 0.39789426 0.52749205
-0.2687909 -0.161123 0.668734 0.4141691 0.59313023
-0.3494529 0.161123 0.551643 0.40223134 0.56384367
-0.14764589 -0.161123 0.746854 0.43209827 0.61266947
-0.2687909 0.161123 0.668734 0.4141691 0.59313023
0.003105104 -0.161123 0.775277 0.45440906 0.6197786
-0.14764589 0.161123 0.746854 0.43209827 0.61266947
0.16012412 -0.161123 0.74776 0.47764745 0.6128961
0.003105104 0.161123 0.775277 0.45440906 0.6197786
0.28406313 -0.161123 0.671151 0.49599013 0.5937348
0.16012412 0.161123 0.74776 0.47764745 0.6128961
0.3654051 -0.161123 0.554362 0.50802857 0.56452376
0.28406313 0.161123 0.671151 0.49599013 0.5937348
0.39463413 -0.161123 0.406305 0.5123544 0.52749205
0.3654051 0.161123 0.554362 0.50802857 0.56452376
0.39463413 0.161123 0.406305 0.5123544 0.52749205
-0.16728288 -0.161123 0.221617 0.42919207 0.48129827
-0.21511686 0.161123 0.301952 0.42211273 0.5013915
-0.21511686 -0.161123 0.301952 0.42211273 0.5013915
-0.093468904 -0.161123 0.169982 0.44011635 0.4683834
-0.16728288 0.161123 0.221617 0.42919207 0.48129824
0.0014930964 -0.161123 0.15173 0.45417047 0.46381825
-0.093468904 0.161123 0.169982 0.44011635 0.4683834
0.10390711 -0.161123 0.169277 0.46932748 0.4682071
0.0014930964 0.161123 0.15173 0.45417047 0.46381825
0.18154913 -0.161123 0.219603 0.4808183 0.48079452
0.10390711 0.161123 0.169277 0.46932748 0.46820706
0.23079214 -0.161123 0.299233 0.4881062 0.5007114
0.18154913 0.161123 0.219603 0.4808183 0.4807945
0.24801213 -0.161123 0.404693 0.49065468 0.5270888
0.23079214 0.161123 0.299233 0.4881062 0.5007114
0.22965911 -0.161123 0.501594 0.48793846 0.5513255
0.24801213 0.161123 0.404693 0.49065468 0.5270888
0.17852813 -0.161123 0.578102 0.4803712 0.5704615
0.22965911 0.161123 0.501594 0.48793846 0.5513255
0.10050911 -0.161123 0.628327 0.4688246 0.5830237
0.17852813 0.161123 0.578102 0.4803712 0.5704615
0.0014930964 -0.161123 0.646378 0.45417047 0.5875386
0.10050911 0.161123 0.628327 0.4688246 0.5830237
-0.092108905 -0.161123 0.628353 0.4403176 0.5830302
0.0014930964 0.161123 0.646378 0.45417047 0.5875386
-0.16607487 -0.161123 0.578304 0.42937082 0.5705121
-0.092108905 0.161123 0.628353 0.4403176 0.5830302
-0.21466386 -0.161123 0.502274 0.42217976 0.5514956
-0.16607487 0.161123 0.578304 0.42937082 0.5705121
-0.23213488 -0.161123 0.406305 0.4195941 0.52749205
-0.21466386 0.161123 0.502274 0.42217976 0.5514956
-0.23213488 0.161123 0.406305 0.4195941 0.52749205
0.4326991 -0.151458 0.037332 0.6045637 0.37209707
0.56749713 -0.151458 1.070277 0.63913774 0.8198444
0.4326991 -0.151458 1.070277 0.6045637 0.8198444
0.56749713 -0.151458 0.037332 0.63913774 0.37209707
0.4326991 0.151458 0.037332 0.6045637 0.37209707
0.4326991 0.151458 1.070277 0.6045637 0.8198444
0.56749713 0.151458 1.070277 0.63913774 0.8198444
0.56749713 0.151458 0.037332 0.63913774 0.37209707
0.4326991 -0.151458 1.070277 0.6045637 0.8198444
0.4326991 0.151458 0.037332 0.6045637 0.37209707
0.4326991 -0.151458 0.037332 0.6045637 0.37209707
0.56749713 -0.151458 1.070277 0.63913774 0.8198444
0.4326991 0.151458 1.070277 0.6045637 0.8198444
0.56749713 -0.151458 0.037332 0.63913774 0.37209707
0.56749713 0.151458 1.070277 0.63913774 0.8198444
0.56749713 0.151458 0.037332 0.63913774 0.37209707
0.88846713 -0.160069 0.17698 0.83148354 0.4549827
0.7716161 -0.160069 0.742025 0.8085678 0.64225596
0.60994613 -0.160069 0.742025 0.7768625 0.64225596
0.9653001 -0.160069 0.33705 0.84655136 0.5080348
1.3110502 -0.160069 0.742025 0.9143569 0.64225596
1.1509812 -0.160069 0.742025 0.88296556 0.64225596
0.80203015 -0.160069 -0.344845 0.81453234 0.2820338
0.6435611 -0.160069 -0.344845 0.7834548 0.2820338
0.88846713 0.160069 0.17698 0.83148354 0.45498267
0.60994613 0.160069 0.742025 0.7768625 0.64225596
0.7716161 0.160069 0.742025 0.8085678 0.64225596
0.9653001 0.160069 0.33705 0.84655136 0.50803477
1.1509812 0.160069 0.742025 0.88296556 0.64225596
1.3110502 0.160069 0.742025 0.9143569 0.64225596
0.80203015 0.160069 -0.344845 0.81453234 0.2820338
0.6435611 0.160069 -0.344845 0.7834548 0.2820338
0.88846713 -0.160069 0.17698 0.83148354 0.4549827
0.6435611 0.160069 -0.344845 0.7834548 0.2820338
0.6435611 -0.160069 -0.344845 0.7834548 0.2820338
0.60994613 -0.160069 0.742025 0.7768625 0.64225596
0.88846713 0.160069 0.17698 0.83148354 0.45498267
0.7716161 -0.160069 0.742025 0.8085678 0.64225596
0.60994613 0.160069 0.742025 0.7768625 0.64225596
0.9653001 -0.160069 0.33705 0.84655136 0.5080348
0.7716161 0.160069 0.742025 0.8085678 0.64225596
1.1509812 -0.160069 0.742025 0.88296556 0.64225596
0.9653001 0.160069 0.33705 0.84655136 0.50803477
1.3110502 -0.160069 0.742025 0.9143569 0.64225596
1.1509812 0.160069 0.742025 0.88296556 0.64225596
0.80203015 -0.160069 -0.344845 0.81453234 0.2820338
1.3110502 0.160069 0.742025 0.9143569 0.64225596
0.80203015 0.160069 -0.344845 0.81453234 0.2820338
1.1884971 -0.095416 0.109049 0 0
1.5882901 -0.095416 0.407701 0 0
2.0063312 -0.095416 -0.234448 0 0
2.3648572 -0.095416 0.04679 0 0
2.445125 -0.095416 -0.00545 0 0
2.519788 -0.095416 -0.066636 0 0
3 0 1 2
3 1 3 2
3 1 4 3
3 1 5 4
3 1 6 5
3 6 7 5
3 7 8 5
3 0 9 1
3 10 8 7
3 11 8 10
3 11 12 8
3 13 12 11
3 14 12 13
3 14 15 12
3 16 15 14
3 16 17 15
3 18 17 16
3 0 19 9
3 0 20 19
3 20 21 19
3 22 17 18
3 20 23 21
3 20 22 23
3 20 17 22
3 20 24 17
3 0 25 20
3 26 24 20
3 26 27 24
3 28 27 26
3 29 27 28
3 30 31 32
3 32 31 33
3 32 33 34
3 32 34 35
3 32 35 36
3 36 35 37
3 37 35 38
3 30 32 39
3 40 37 38
3 41 40 38
3 41 38 42
3 43 41 42
3 44 43 42
3 44 42 45
3 46 44 45
3 46 45 47
3 48 46 47
3 30 39 49
3 30 49 50
3 50 49 51
3 52 48 47
3 50 51 53
3 50 53 52
3 50 52 47
3 50 47 54
3 30 50 55
3 56 50 54
3 56 54 57
3 58 56 57
3 59 58 57
3 60 61 62
3 63 64 60
3 65 66 63
3 67 68 65
3 69 70 67
3 71 72 69
3 73 74 71
3 75 76 73
3 77 78 75
3 79 80 77
3 81 82 79
3 83 84 81
3 85 86 83
3 87 88 85
3 89 90 87
3 62 91 89
3 92 93 94
3 95 96 92
3 97 98 95
3 99 100 97
3 101 102 99
3 103 104 101
3 105 106 103
3 107 108 105
3 109 110 107
3 111 112 109
3 113 114 111
3 115 116 113
3 117 118 115
3 94 119 117
3 60 64 61
3 63 66 64
3 65 68 66
3 67 70 68
3 69 72 70
3 71 74 72
3 73 76 74
3 75 78 76
3 77 80 78
3 79 82 80
3 81 84 82
3 83 86 84
3 85 88 86
3 87 90 88
3 89 91 90
3 62 61 91
3 92 96 93
3 95 98 96
3 97 100 98
3 99 102 100
3 101 104 102
3 103 106 104
3 105 108 106
3 107 110 108
3 109 112 110
3 111 114 112
3 113 116 114
3 115 118 116
3 117 119 118
3 94 93 119
3 120 121 122
3 120 123 121
3 124 123 120
3 124 125 123
3 125 126 123
3 126 127 123
3 128 129 124
3 129 125 124
3 128 130 129
3 131 127 126
3 128 132 130
3 133 127 131
3 133 134 127
3 135 132 128
3 135 136 132
3 137 134 133
3 138 136 135
3 138 139 136
3 137 140 134
3 141 140 137
3 138 142 139
3 143 140 141
3 144 142 138
3 143 145 140
3 144 146 142
3 147 145 143
3 144 148 146
3 148 145 147
3 144 145 148
3 149 145 144
3 149 150 145
3 151 150 149
3 152 153 154
3 152 154 155
3 156 152 155
3 156 155 157
3 157 155 158
3 158 155 159
3 160 156 161
3 161 156 157
3 160 161 162
3 163 158 159
3 160 162 164
3 165 163 159
3 165 159 166
3 167 160 164
3 167 164 168
3 169 165 166
3 170 167 168
3 170 168 171
3 169 166 172
3 173 169 172
3 170 171 174
3 175 173 172
3 176 170 174
3 175 172 177
3 176 174 178
3 179 175 177
3 176 178 180
3 180 179 177
3 176 180 177
3 181 176 177
3 181 177 182
3 183 181 182
3 184 185 186
3 187 188 184
3 189 190 187
3 191 192 189
3 193 194 191
3 195 196 193
3 197 198 195
3 199 200 197
3 201 202 199
3 203 204 201
3 205 206 203
3 207 208 205
3 209 210 207
3 211 212 209
3 213 214 211
3 186 215 213
3 216 217 218
3 219 220 216
3 221 222 219
3 223 224 221
3 225 226 223
3 227 228 225
3 229 230 227
3 231 232 229
3 233 234 231
3 235 236 233
3 237 238 235
3 239 240 237
3 241 242 239
3 243 244 241
3 245 246 243
3 218 247 245
3 184 188 185
3 187 190 188
3 189 192 190
3 191 194 192
3 193 196 194
3 195 198 196
3 197 200 198
3 199 202 200
3 201 204 202
3 203 206 204
3 205 208 206
3 207 210 208
3 209 212 210
3 211 214 212
3 213 215 214
3 186 185 215
3 216 220 217
3 219 222 220
3 221 224 222
3 223 226 224
3 225 228 226
3 227 230 228
3 229 232 230
3 231 234 232
3 233 236 234
3 235 238 236
3 237 240 238
3 239 242 240
3 241 244 242
3 243 246 244
3 245 247 246
3 218 217 247
3 248 249 250
3 248 251 249
3 252 253 254
3 252 254 255
3 256 257 258
3 259 260 256
3 261 262 259
3 258 263 261
3 256 260 257
3 259 262 260
3 261 263 262
3 258 257 263
3 264 265 266
3 264 267 265
3 267 268 269
3 267 270 268
3 264 270 267
3 271 270 264
3 272 273 274
3 272 274 275
3 275 276 277
3 275 277 278
3 272 275 278
3 279 272 278
3 280 281 282
3 283 284 280
3 285 286 283
3 287 288 285
3 289 290 287
3 291 292 289
3 293 294 291
3 282 295 293
3 280 284 281
3 283 286 284
3 285 288 286
3 287 290 288
3 289 292 290
3 291 294 292
3 293 295 294
3 282 281 295
