ply
format ascii 1.0
comment Created in Blender version 4.1.1
element vertex 81
property float x
property float y
property float z
property float nx
property float ny
property float nz
property float s
property float t
element face 128
property list uchar uint vertex_indices
end_header
-0.5046031 0.3784523 1.4787787e-07 -3.2584137e-07 -4.3711395e-08 -1 1 0.875
-0.3784523 0.5046031 1.0125852e-07 -3.2584137e-07 -4.3711395e-08 -1 0.8750001 1
-0.3784523 0.3784523 1.0677274e-07 -3.2584137e-07 -4.371139e-08 -1 0.8750001 0.875
-5.3902873e-15 0.3784523 -1.6542675e-08 -3.2584137e-07 -4.371139e-08 -1 0.5 0.875
0.12615077 0.5046031 -6.316204e-08 -3.2584137e-07 -4.3711395e-08 -1 0.375 1
0.12615077 0.3784523 -5.7647814e-08 -3.2584137e-07 -4.371139e-08 -1 0.375 0.875
1.7967625e-15 -0.12615077 5.5142255e-09 -3.2584137e-07 -4.3711395e-08 -1 0.5 0.37500006
0.12615077 0 -4.110514e-08 -3.2584137e-07 -4.371139e-08 -1 0.375 0.5
0.12615077 -0.12615077 -3.559091e-08 -3.2584137e-07 -4.3711395e-08 -1 0.375 0.37500006
-0.5046031 -0.12615077 1.6993478e-07 -3.2584137e-07 -4.3711374e-08 -1 1 0.37500006
-0.3784523 0 1.2331542e-07 -3.2584137e-07 -4.371139e-08 -1 0.8750001 0.5
-0.3784523 -0.12615077 1.2882964e-07 -3.2584137e-07 -4.371139e-08 -1 0.8750001 0.37500006
-0.25230154 -0.12615077 8.77245e-08 -3.2584137e-07 -4.3711402e-08 -1 0.75 0.37500006
-0.12615077 0 4.110514e-08 -3.2584137e-07 -4.371139e-08 -1 0.6250001 0.5
-0.12615077 -0.12615077 4.6619366e-08 -3.2584137e-07 -4.3711395e-08 -1 0.6250001 0.37500006
-0.25230154 -0.3784523 9.8752956e-08 -3.2584137e-07 -4.3711402e-08 -1 0.75 0.12500004
-0.12615077 -0.25230154 5.213359e-08 -3.2584137e-07 -4.3711374e-08 -1 0.6250001 0.25
-0.12615077 -0.3784523 5.7647814e-08 -3.2584137e-07 -4.3711395e-08 -1 0.6250001 0.12500004
-0.5046031 -0.3784523 1.8096324e-07 -3.2584137e-07 -4.3711374e-08 -1 1 0.12500004
-0.3784523 -0.25230154 1.3434388e-07 -3.2584137e-07 -4.3711374e-08 -1 0.8750001 0.25
-0.3784523 -0.3784523 1.3985809e-07 -3.2584137e-07 -4.371139e-08 -1 0.8750001 0.12500004
0.25230154 -0.12615077 -7.6696054e-08 -3.2584137e-07 -4.371141e-08 -1 0.25 0.37500006
0.3784523 0 -1.2331542e-07 -3.2584137e-07 -4.371138e-08 -1 0.125 0.5
0.3784523 -0.12615077 -1.1780119e-07 -3.2584137e-07 -4.3711395e-08 -1 0.125 0.37500006
0.25230154 -0.3784523 -6.56676e-08 -3.2584137e-07 -4.371139e-08 -1 0.25 0.12500004
0.3784523 -0.25230154 -1.1228696e-07 -3.2584137e-07 -4.3711353e-08 -1 0.125 0.25
0.3784523 -0.3784523 -1.0677274e-07 -3.2584137e-07 -4.371139e-08 -1 0.125 0.12500004
5.3902873e-15 -0.3784523 1.6542675e-08 -3.2584137e-07 -4.3711395e-08 -1 0.5 0.12500004
0.12615077 -0.25230154 -3.0076688e-08 -3.2584137e-07 -4.3711374e-08 -1 0.375 0.25
0.12615077 -0.3784523 -2.4562464e-08 -3.2584137e-07 -4.3711395e-08 -1 0.375 0.12500004
0.25230154 0.3784523 -9.8752956e-08 -3.2584137e-07 -4.371141e-08 -1 0.25 0.875
0.3784523 0.5046031 -1.4537233e-07 -3.2584137e-07 -4.3711395e-08 -1 0.125 1
0.3784523 0.3784523 -1.3985809e-07 -3.2584137e-07 -4.3711367e-08 -1 0.125 0.875
0.25230154 0.12615077 -8.77245e-08 -3.2584137e-07 -4.371141e-08 -1 0.25 0.62500006
0.3784523 0.25230154 -1.3434388e-07 -3.2584137e-07 -4.371136e-08 -1 0.125 0.74999994
0.3784523 0.12615077 -1.2882964e-07 -3.2584137e-07 -4.371139e-08 -1 0.125 0.62500006
-1.7967625e-15 0.12615077 -5.5142255e-09 -3.2584137e-07 -4.371139e-08 -1 0.5 0.62500006
0.12615077 0.25230154 -5.213359e-08 -3.2584137e-07 -4.3711367e-08 -1 0.375 0.74999994
0.12615077 0.12615077 -4.6619366e-08 -3.2584137e-07 -4.371139e-08 -1 0.375 0.62500006
-0.25230154 0.3784523 6.56676e-08 -3.2584137e-07 -4.3711395e-08 -1 0.75 0.875
-0.12615077 0.5046031 1.9048237e-08 -3.2584137e-07 -4.3711395e-08 -1 0.6250001 1
-0.12615077 0.3784523 2.4562464e-08 -3.2584137e-07 -4.371139e-08 -1 0.6250001 0.875
-0.25230154 0.12615077 7.6696054e-08 -3.2584137e-07 -4.3711402e-08 -1 0.75 0.62500006
-0.12615077 0.25230154 3.0076688e-08 -3.2584137e-07 -4.3711367e-08 -1 0.6250001 0.74999994
-0.12615077 0.12615077 3.559091e-08 -3.2584137e-07 -4.371139e-08 -1 0.6250001 0.62500006
-0.5046031 0.12615077 1.5890633e-07 -3.2584137e-07 -4.371136e-08 -1 1 0.62500006
-0.3784523 0.25230154 1.1228696e-07 -3.2584137e-07 -4.3711367e-08 -1 0.8750001 0.74999994
-0.3784523 0.12615077 1.1780119e-07 -3.2584137e-07 -4.3711395e-08 -1 0.8750001 0.62500006
-0.25230154 0.25230154 7.118182e-08 -3.2584137e-07 -4.3711367e-08 -1 0.75 0.74999994
-0.25230154 0 8.221028e-08 -3.2584137e-07 -4.371139e-08 -1 0.75 0.5
-0.5046031 0 1.6442056e-07 -3.2584137e-07 -4.371136e-08 -1 1 0.5
-3.593525e-15 0.25230154 -1.1028451e-08 -3.2584137e-07 -4.3711367e-08 -1 0.5 0.74999994
0 0 0 -3.2584137e-07 -4.371139e-08 -1 0.5 0.5
-7.18705e-15 0.5046031 -2.2056902e-08 -3.2584137e-07 -4.3711395e-08 -1 0.5 1
0.25230154 0.25230154 -9.323873e-08 -3.2584137e-07 -4.3711367e-08 -1 0.25 0.74999994
0.25230154 0 -8.221028e-08 -3.2584137e-07 -4.3711402e-08 -1 0.25 0.5
0.5046031 0.25230154 -1.75449e-07 -3.2584137e-07 -4.3711346e-08 -1 0 0.74999994
0.5046031 0.12615077 -1.6993478e-07 -3.2584137e-07 -4.3711374e-08 -1 0 0.62500006
0.5046031 0 -1.6442056e-07 -3.2584137e-07 -4.371136e-08 -1 0 0.5
0.5046031 0.5046031 -1.8647746e-07 -3.2584137e-07 -4.371138e-08 -1 0 1
0.5046031 0.3784523 -1.8096324e-07 -3.2584137e-07 -4.371138e-08 -1 0 0.875
0.25230154 -0.25230154 -7.118182e-08 -3.2584137e-07 -4.371139e-08 -1 0.25 0.25
0.12615077 -0.5046031 -1.9048237e-08 -3.2584137e-07 -4.3711395e-08 -1 0.375 0
0.25230154 -0.5046031 -6.0153376e-08 -3.2584137e-07 -4.3711395e-08 -1 0.25 0
7.18705e-15 -0.5046031 2.2056902e-08 -3.2584137e-07 -4.3711395e-08 -1 0.5 0
0.5046031 -0.25230154 -1.5339211e-07 -3.2584137e-07 -4.3711346e-08 -1 0 0.25
0.5046031 -0.3784523 -1.4787787e-07 -3.2584137e-07 -4.3711395e-08 -1 0 0.12500004
0.3784523 -0.5046031 -1.0125852e-07 -3.2584137e-07 -4.3711395e-08 -1 0.125 0
0.5046031 -0.5046031 -1.4236365e-07 -3.2584137e-07 -4.371138e-08 -1 0 0
0.5046031 -0.12615077 -1.5890633e-07 -3.2584137e-07 -4.371136e-08 -1 0 0.37500006
-0.25230154 -0.25230154 9.323873e-08 -3.2584137e-07 -4.371139e-08 -1 0.75 0.25
-0.3784523 -0.5046031 1.4537233e-07 -3.2584137e-07 -4.371139e-08 -1 0.8750001 0
-0.25230154 -0.5046031 1.0426718e-07 -3.2584137e-07 -4.371143e-08 -1 0.75 0
-0.5046031 -0.5046031 1.8647746e-07 -3.2584137e-07 -4.371138e-08 -1 1 0
3.593525e-15 -0.25230154 1.1028451e-08 -3.2584137e-07 -4.3711367e-08 -1 0.5 0.25
-0.12615077 -0.5046031 6.316204e-08 -3.2584137e-07 -4.3711395e-08 -1 0.6250001 0
-0.5046031 -0.25230154 1.75449e-07 -3.2584137e-07 -4.3711346e-08 -1 1 0.25
0.25230154 0.5046031 -1.0426718e-07 -3.2584137e-07 -4.371143e-08 -1 0.25 1
-0.25230154 0.5046031 6.0153376e-08 -3.2584137e-07 -4.3711395e-08 -1 0.75 1
-0.5046031 0.25230154 1.5339211e-07 -3.2584137e-07 -4.371136e-08 -1 1 0.74999994
-0.5046031 0.5046031 1.4236365e-07 -3.2584137e-07 -4.371138e-08 -1 1 1
3 0 1 2
3 3 4 5
3 6 7 8
3 9 10 11
3 12 13 14
3 15 16 17
3 18 19 20
3 21 22 23
3 24 25 26
3 27 28 29
3 30 31 32
3 33 34 35
3 36 37 38
3 39 40 41
3 42 43 44
3 45 46 47
3 47 48 42
3 10 42 49
3 50 47 10
3 44 51 36
3 13 36 52
3 49 44 13
3 41 53 3
3 43 3 51
3 48 41 43
3 38 54 33
3 7 33 55
3 52 38 7
3 35 56 57
3 22 57 58
3 55 35 22
3 32 59 60
3 34 60 56
3 54 32 34
3 29 61 24
3 62 24 63
3 64 29 62
3 26 65 66
3 67 66 68
3 63 26 67
3 23 58 69
3 25 69 65
3 61 23 25
3 20 70 15
3 71 15 72
3 73 20 71
3 17 74 27
3 75 27 64
3 72 17 75
3 14 52 6
3 16 6 74
3 70 14 16
3 11 49 12
3 19 12 70
3 76 11 19
3 8 55 21
3 28 21 61
3 74 8 28
3 5 77 30
3 37 30 54
3 51 5 37
3 2 78 39
3 46 39 48
3 79 2 46
3 0 80 1
3 3 53 4
3 6 52 7
3 9 50 10
3 12 49 13
3 15 70 16
3 18 76 19
3 21 55 22
3 24 61 25
3 27 74 28
3 30 77 31
3 33 54 34
3 36 51 37
3 39 78 40
3 42 48 43
3 45 79 46
3 47 46 48
3 10 47 42
3 50 45 47
3 44 43 51
3 13 44 36
3 49 42 44
3 41 40 53
3 43 41 3
3 48 39 41
3 38 37 54
3 7 38 33
3 52 36 38
3 35 34 56
3 22 35 57
3 55 33 35
3 32 31 59
3 34 32 60
3 54 30 32
3 29 28 61
3 62 29 24
3 64 27 29
3 26 25 65
3 67 26 66
3 63 24 26
3 23 22 58
3 25 23 69
3 61 21 23
3 20 19 70
3 71 20 15
3 73 18 20
3 17 16 74
3 75 17 27
3 72 15 17
3 14 13 52
3 16 14 6
3 70 12 14
3 11 10 49
3 19 11 12
3 76 9 11
3 8 7 55
3 28 8 21
3 74 6 8
3 5 4 77
3 37 5 30
3 51 3 5
3 2 1 78
3 46 2 39
3 79 0 2
