ply
format ascii 1.0
comment Created in Blender version 4.0.2
element vertex 52
property float x
property float y
property float z
property float s
property float t
element face 64
property list uchar uint vertex_indices
end_header
0 0 -6.3575344 0.6875 0
2.6423624 2.6423624 -5.1433535 0.625 0.19999999
0 3.7368646 -5.1433535 0.75 0.19999999
0 6.046375 1.9645863 0.75 0.6
0 6.046375 -1.9645863 0.75 0.39999998
4.2754326 4.2754326 -1.9645863 0.625 0.39999998
0 3.7368646 5.1433535 0.75 0.8000001
2.6423624 2.6423624 5.1433535 0.625 0.8
0 0 6.3575344 0.6875 1
4.2754326 4.2754326 1.9645863 0.625 0.6
0 0 -6.3575344 0.5625 0
3.7368646 0 -5.1433535 0.5 0.19999999
6.046375 0 -1.9645863 0.5 0.39999998
3.7368646 0 5.1433535 0.5 0.8000001
0 0 6.3575344 0.5625 1
6.046375 0 1.9645863 0.5 0.6
0 0 -6.3575344 0.4375 0
2.642362 -2.642362 -5.1433535 0.375 0.19999999
4.2754326 -4.2754326 -1.9645863 0.375 0.39999998
2.642362 -2.642362 5.1433535 0.375 0.8000001
0 0 6.3575344 0.4375 1
4.2754326 -4.2754326 1.9645863 0.375 0.6
0 0 -6.3575344 0.3125 0
0 -3.7368646 -5.1433535 0.25 0.19999999
0 -6.046375 -1.9645863 0.25 0.39999998
0 -3.7368646 5.1433535 0.25 0.8000001
0 0 6.3575344 0.3125 1
0 -6.046375 1.9645863 0.25 0.6
0 0 -6.3575344 0.1875 0
-2.642362 -2.642362 -5.1433535 0.125 0.19999999
-4.2754326 -4.2754326 -1.9645863 0.125 0.39999998
-2.642362 -2.642362 5.1433535 0.125 0.8000001
0 0 6.3575344 0.1875 1
-4.2754326 -4.2754326 1.9645863 0.125 0.6
0 0 -6.3575344 0.06250003 0
-3.7368646 0 -5.1433535 0 0.19999999
-6.046375 0 -1.9645863 0 0.39999998
-3.7368646 0 5.1433535 0 0.8000001
0 0 6.3575344 0.06250003 1
-6.046375 0 1.9645863 0 0.6
0 0 -6.3575344 0.9375 0
-2.642362 2.642362 -5.1433535 0.875 0.19999999
-3.7368646 0 -5.1433535 1 0.19999999
-6.046375 0 1.9645863 1 0.6
-6.046375 0 -1.9645863 1 0.39999998
-4.2754326 4.2754326 -1.9645863 0.875 0.39999998
-3.7368646 0 5.1433535 1 0.8000001
-2.642362 2.642362 5.1433535 0.875 0.8000001
0 0 6.3575344 0.9375 1
-4.2754326 4.2754326 1.9645863 0.875 0.6
0 0 -6.3575344 0.8125 0
0 0 6.3575344 0.8125 1
3 0 1 2
3 3 4 5
3 6 7 8
3 4 2 1
3 6 3 9
3 10 11 1
3 9 5 12
3 7 13 14
3 5 1 11
3 9 15 13
3 16 17 11
3 15 12 18
3 13 19 20
3 12 11 17
3 13 15 21
3 22 23 17
3 21 18 24
3 19 25 26
3 18 17 23
3 19 21 27
3 28 29 23
3 27 24 30
3 25 31 32
3 24 23 29
3 25 27 33
3 34 35 29
3 33 30 36
3 31 37 38
3 30 29 35
3 31 33 39
3 40 41 42
3 43 44 45
3 46 47 48
3 44 42 41
3 46 43 49
3 50 2 41
3 49 45 4
3 47 6 51
3 45 41 2
3 47 49 3
3 3 5 9
3 4 1 5
3 6 9 7
3 9 12 15
3 5 11 12
3 9 13 7
3 15 18 21
3 12 17 18
3 13 21 19
3 21 24 27
3 18 23 24
3 19 27 25
3 27 30 33
3 24 29 30
3 25 33 31
3 33 36 39
3 30 35 36
3 31 39 37
3 43 45 49
3 44 41 45
3 46 49 47
3 49 4 3
3 45 2 4
3 47 3 6
