ply
format ascii 1.0
comment Created in Blender version 4.1.1
element vertex 333
property float x
property float y
property float z
property float nx
property float ny
property float nz
property float s
property float t
element face 296
property list uchar uint vertex_indices
end_header
2.112624 -0.10204624 -1.8219731 -0 -0.027431646 -0.99962366 0.8658 0.3625
1.922053 -2.0586345 -1.7682804 -0 -0.02743161 -0.99962366 0.8379 0.6486
1.8945624 -0.10204624 -1.8219731 -0 -0.027431652 -0.9996237 0.8339 0.3625
1.8889172 -0.10204624 -1.812892 -0.96050763 -0.022589736 -0.27733514 0.8304 0.3636
1.922053 -2.0586348 -1.5036544 -0.99985427 -0.01697411 0.0018022975 0.8026 0.6498
1.8889172 -0.10204626 -1.4590425 -0.96050954 -0.022590138 0.27732855 0.7982 0.3637
1.8945624 -0.10204626 -1.4499617 1.363369e-06 -0.027433632 0.99962366 0.7954 0.3636
2.0851336 -2.0586348 -1.5036585 2.3781999e-05 -0.027431408 0.99962366 0.7676 0.6498
2.112624 -0.10204626 -1.4499617 0 -0.027433766 0.99962366 0.7635 0.3636
2.1182692 -0.10204626 -1.4590425 0.9605113 -0.022590924 0.2773224 0.8987 0.3622
2.0851336 -2.0586345 -1.7682804 0.99985427 -0.016974054 -0.0018020727 0.8704 0.6483
2.1182692 -0.10204624 -1.812892 0.9605139 -0.022589957 -0.27731347 0.8665 0.3622
2.0851336 -2.0586348 -1.5036585 -0 -1 -9.0097836e-07 0.861 0.6854
1.922053 -2.0586348 -1.5036544 -0 -1 -9.0097313e-07 0.8371 0.6854
2.0851336 -2.0586345 -1.7682804 -0 -1 -9.0096864e-07 0.861 0.6614
2.112624 -0.10204624 -1.8219731 0.8489995 -0.026411436 -0.5277332 0.8653 0.3622
1.922053 -2.0586345 -1.7682804 -0.9998543 -0.016974108 -0.0018021924 0.8266 0.6498
1.8945624 -0.10204624 -1.8219731 -0.84897906 -0.02641062 -0.527766 0.8315 0.3636
1.8945624 -0.10204626 -1.4499617 -0.8489831 -0.02641153 0.5277596 0.797 0.3637
2.0851336 -2.0586348 -1.5036585 0.99985427 -0.01697398 0.0017986655 0.8945 0.6483
2.112624 -0.10204626 -1.4499617 0.8489933 -0.026413092 0.5277431 0.8998 0.3622
-2.1127014 -0.10204872 -1.8222711 -0 -0.027498106 -0.99962187 0.9822 0.9901
-1.9219477 -2.0587394 -1.7684455 0.0029759377 -0.027539536 -0.99961627 0.9495 0.7038
-2.085236 -2.0587394 -1.7684455 -0 -0.027497908 -0.9996218 0.9735 0.7037
-1.8887318 -0.10204872 -1.8130169 0.99985594 -0.016973099 6.2162546e-09 0.9402 0.9898
-1.9219477 -2.0587397 -1.5034894 0.99985594 -0.016973082 6.368918e-08 0.9123 0.7032
-1.9219477 -2.0587394 -1.7684455 0.999856 -0.01697308 7.177892e-08 0.9359 0.7032
-1.8944848 -0.10204874 -1.4496636 0.48528993 -0.030847864 0.87380904 0.9026 0.9911
-2.085236 -2.0587397 -1.5034894 0 -0.027498096 0.99962187 0.8793 0.7043
-1.9219477 -2.0587397 -1.5034894 0.0029759964 -0.027539697 0.99961627 0.9032 0.7044
-2.118452 -0.10204874 -1.4589179 -0.9605371 -0.022621008 0.27723074 0.8654 0.9896
-2.085236 -2.0587394 -1.7684455 -0.9998536 -0.017014978 -0.0018371901 0.8374 0.703
-2.085236 -2.0587397 -1.5034894 -0.9998535 -0.017014977 0.0018373491 0.8638 0.703
-2.085236 -2.0587394 -1.7684455 -0 -1 -8.9984195e-07 0.9187 0.661
-1.9219477 -2.0587394 -1.7684455 -0 -1 -8.998427e-07 0.9435 0.661
-1.9219477 -2.0587397 -1.5034894 -0 -1 -8.998414e-07 0.9435 0.686
-2.1127014 -0.10204872 -1.8222711 -0.8490864 -0.026432645 -0.52759224 0.8361 0.9896
-2.118452 -0.10204872 -1.8130169 -0.9605378 -0.022621136 -0.27722785 0.8359 0.9896
-1.8944848 -0.10204872 -1.8222711 0.48529065 -0.030848205 -0.87380856 0.9501 0.9905
-1.8887318 -0.10204872 -1.8130169 0.84896606 -0.02643379 -0.5277857 0.9489 0.9905
-1.8887318 -0.10204874 -1.4589179 0.84896606 -0.026433092 0.5277857 0.9038 0.991
-2.1127014 -0.10204874 -1.4496636 -0.8490864 -0.026432294 0.52759224 0.8651 0.9896
2.112709 -0.10205147 1.8223078 0 -0.02750718 0.99962157 0.9403 0.6475
1.9219353 -2.0586874 1.768466 0 -0.02750693 0.9996216 0.9135 0.3725
2.0852487 -2.0586874 1.768466 0 -0.027506907 0.99962157 0.9364 0.3725
1.8887093 -0.10205147 1.8130336 -0.96050626 -0.022627702 0.2773367 0.7158 0.6406
1.9219353 -2.0586872 1.5034697 -0.9998559 -0.016978746 6.369048e-08 0.692 0.3653
1.9219353 -2.0586874 1.768466 -0.99985343 -0.017020728 0.00184503 0.7151 0.3656
1.8944749 -0.102051444 1.449628 -0.48529413 -0.030855602 -0.87380636 0.9877 0.6492
2.0852487 -2.0586872 1.5034697 -0 -0.027507113 -0.99962157 0.9609 0.3742
1.9219353 -2.0586872 1.5034697 -0.0029874253 -0.027548896 -0.999616 0.9839 0.3742
2.118477 -0.102051444 1.4589024 0.96048594 -0.022630645 -0.27740693 0.7574 0.643
2.0852487 -2.0586874 1.768466 0.99985343 -0.017021885 0.0018419537 0.732 0.3678
2.0852487 -2.0586872 1.5034697 0.99985343 -0.017021885 -0.0018417966 0.7552 0.368
2.0852487 -2.0586874 1.768466 -0 -1 -8.997052e-07 0.7447 0.6851
1.9219353 -2.0586874 1.768466 -0 -1 -8.9970536e-07 0.7218 0.6851
1.9219353 -2.0586872 1.5034697 -0 -1 -8.9970496e-07 0.7217 0.662
2.112709 -0.10205147 1.8223078 0.84889007 -0.02644202 0.52790767 0.7253 0.6428
2.118477 -0.10205147 1.8130336 0.960486 -0.022630744 0.2774069 0.7265 0.6429
1.8944749 -0.10205147 1.8223078 -0.8489701 -0.026438238 0.527779 0.717 0.6406
1.8887093 -0.102051444 1.4589024 -0.8489733 -0.026437638 -0.527774 0.9889 0.6492
2.112709 -0.102051444 1.449628 0.8488931 -0.026441768 -0.52790266 0.7586 0.643
-2.112709 -0.10205147 1.8223078 -0.48522618 -0.030856865 0.873844 0.6898 0.982
-1.9219353 -2.0586874 1.768466 0.0029873536 -0.027548702 0.99961597 0.7177 0.696
-1.8944749 -0.10205147 1.8223078 0.48529267 -0.03085591 0.87380713 0.7194 0.982
-1.8887093 -0.10205147 1.8130336 0.9998558 -0.016978754 6.2175847e-09 0.7272 0.9881
-1.9219353 -2.0586872 1.5034697 0.9998559 -0.016978746 6.369048e-08 0.7554 0.7022
-1.8887093 -0.102051444 1.4589024 0.9998558 -0.016978754 0 0.7594 0.9881
-1.8944749 -0.102051444 1.449628 0.48529416 -0.030855604 -0.8738063 0.765 0.9921
-2.0852487 -2.0586872 1.5034697 -0.002981386 -0.027548807 -0.999616 0.7929 0.7061
-2.112709 -0.102051444 1.449628 -0.48522976 -0.030856606 -0.87384206 0.7946 0.9921
-2.118477 -0.102051444 1.4589024 -0.9998558 -0.016979968 6.789768e-09 0.8005 0.9935
-2.0852487 -2.0586874 1.768466 -0.9998559 -0.016979966 6.95517e-08 0.8286 0.7075
-2.118477 -0.10205147 1.8130336 -0.9998558 -0.016979968 0 0.8327 0.9935
-2.0852487 -2.0586872 1.5034697 -0 -1 -8.9970473e-07 0.803 0.6648
-1.9219353 -2.0586872 1.5034697 -0 -1 -8.9970496e-07 0.803 0.6887
-2.0852487 -2.0586874 1.768466 -0 -1 -8.997052e-07 0.779 0.6648
-2.118477 -0.10205147 1.8130336 -0.84889007 -0.02644202 0.52790767 0.6898 0.982
-2.0852487 -2.0586874 1.768466 -0.0029814364 -0.027548606 0.999616 0.6915 0.696
-1.8887093 -0.10205147 1.8130336 0.84897023 -0.026438065 0.527779 0.7194 0.982
-1.9219353 -2.0586872 1.5034697 0.0029874253 -0.027548896 -0.999616 0.7667 0.7061
-1.8887093 -0.102051444 1.4589024 0.8489733 -0.026437638 -0.527774 0.765 0.9921
-2.118477 -0.102051444 1.4589024 -0.84889317 -0.02644168 -0.5279027 0.7947 0.9921
1.945951 -0.10060937 -1.4659652 -1 0 2.9284648e-08 0.7005 0.3499
1.945951 -0.34674484 1.4815222 -0.92388064 -0.38268068 -8.155597e-08 0.9673 0.314
1.945951 -0.10060959 1.4815222 -1 0 -8.215885e-08 0.9673 0.3499
1.9579026 -0.35869616 -1.4659652 -0 -1 -8.088884e-08 0.7005 0.3054
2.061123 -0.3586964 1.4815222 -0 -1 -8.088867e-08 0.9673 0.2904
1.9579026 -0.3586964 1.4815222 -0 -1 -8.088867e-08 0.9673 0.3054
2.073074 -0.3467446 -1.4659652 0.92388356 -0.38267386 4.7245425e-09 0.6995 0.2841
2.073074 -0.10060959 1.4815222 1 0 1.968871e-09 0.9663 0.2482
2.073074 -0.34674484 1.4815222 0.9238814 -0.3826789 -4.0374093e-08 0.9663 0.2841
1.945951 -0.3467446 -1.4659652 -0.92387855 -0.38268572 -5.5797402e-09 0.7005 0.314
1.9579026 -0.3586964 1.4815222 -0.70710653 -0.70710707 -7.467086e-08 0.9673 0.3116
2.061123 -0.35869616 -1.4659652 0.7071171 -0.7070965 -2.6609792e-08 0.6995 0.2865
2.061123 -0.3586964 1.4815222 0.7071171 -0.7070965 -7.477821e-08 0.9663 0.2865
-1.945951 -0.10060937 -1.4659652 1 0 2.9284648e-08 0.7206 0.0116
-1.945951 -0.34674484 1.4815222 0.92388064 -0.38268068 -8.155596e-08 0.9874 0.0475
-1.945951 -0.3467446 -1.4659652 0.92387855 -0.38268572 -5.5797402e-09 0.7206 0.0475
-1.9579026 -0.35869616 -1.4659652 -0 -1 -8.088884e-08 0.7216 0.0625
-2.061123 -0.3586964 1.4815222 -0 -1 -8.088867e-08 0.9883 0.0775
-2.061123 -0.35869616 -1.4659652 -0 -1 -8.088884e-08 0.7216 0.0775
-2.073074 -0.3467446 -1.4659652 -0.9238835 -0.3826738 4.7245416e-09 0.7192 0.0914
-2.073074 -0.10060959 1.4815222 -1 0 1.968871e-09 0.986 0.1272
-2.073074 -0.10060937 -1.4659652 -1 0 3.713123e-08 0.7192 0.1272
-1.9579026 -0.3586964 1.4815222 0.70710653 -0.70710707 -7.467086e-08 0.9874 0.0499
-1.9579026 -0.35869616 -1.4659652 0.7071065 -0.7071071 -4.5728168e-08 0.7206 0.0499
-2.061123 -0.35869616 -1.4659652 -0.7071171 -0.7070965 -2.6609792e-08 0.7192 0.0889
-2.073074 -0.34674484 1.4815222 -0.9238814 -0.3826789 -4.0374093e-08 0.986 0.0914
1.9063036 -0.3591769 -1.726137 0 -1 0 0.5627 0.2013
-1.9063036 -0.3591769 -1.5458015 0 -1 0 0.0076 0.2177
-1.9063036 -0.3591769 -1.726137 0 -1 0 0.0076 0.2013
1.9063036 -0.3511884 -1.5329472 0 -0.48587713 0.87402713 0.564 0.0526
-1.9063036 -0.10294757 -1.5329472 0 0 1 0.0089 0.0887
-1.9063036 -0.3511884 -1.5329472 0 -0.4858811 0.8740249 0.0089 0.0526
-1.9063036 -0.102947555 -1.7389874 0 0 -1 0.0066 0.1397
1.9063036 -0.3511884 -1.7389874 -0 -0.48581588 -0.87406117 0.5617 0.1759
-1.9063036 -0.3511884 -1.7389874 -0 -0.4858242 -0.8740565 0.0066 0.1759
1.9063036 -0.3591769 -1.726137 -0 -0.8492707 -0.5279577 0.5617 0.1775
-1.9063036 -0.3591769 -1.726137 -0 -0.8492753 -0.5279502 0.0066 0.1775
-1.9063036 -0.3591769 -1.5458015 0 -0.8493444 0.5278391 0.0089 0.0509
1.9063036 -0.35917714 1.7261378 0 -1 0 0.5611 0.1983
-1.9063036 -0.35917714 1.5458021 0 -1 0 0.006 0.182
1.9063036 -0.35917714 1.5458021 0 -1 0 0.5611 0.182
1.9063036 -0.35118863 1.5329478 -0 -0.48588085 -0.87402505 0.5634 0.0455
-1.9063036 -0.10294781 1.5329478 0 0 -1 0.0083 0.0093
1.9063036 -0.10294781 1.5329478 0 0 -1 0.5634 0.0093
-1.9063036 -0.10294782 1.738988 0 0 1 0.0075 0.1337
1.9063036 -0.35118863 1.738988 0 -0.48581588 0.87406117 0.5627 0.0976
1.9063036 -0.10294782 1.738988 0 0 1 0.5627 0.1337
-1.9063036 -0.35118863 1.738988 0 -0.4858204 0.87405866 0.0075 0.0976
1.9063036 -0.35917714 1.7261378 0 -0.8492707 0.5279577 0.5627 0.0959
-1.9063036 -0.35917714 1.5458021 -0 -0.8493444 -0.5278391 0.0083 0.0471
1.9063036 -0.35917714 1.5458021 -0 -0.849349 -0.52783173 0.5634 0.0471
2.271541 -0.0013219595 -1.7943877 8.624537e-09 1 7.5497724e-08 0.0169 0.6331
2.2389412 -0.0013219476 -1.9535652 8.152479e-09 1 7.5417354e-08 0.0199 0.6187
2.271541 -0.0013222306 1.7943883 -9.563462e-09 1 7.548219e-08 0.0163 0.9526
-2.140197 -0.007715825 -2.0161054 -0.04670531 0.47538924 -0.87853503 0.655 0.6073
-2.1399868 -0.0013219436 -2.0060055 -0.029092688 0.8448447 -0.5342199 0.655 0.6086
2.1399868 -0.0013219436 -2.0060055 0.029107098 0.8448439 -0.5342205 0.0292 0.6085
-2.2778199 -0.007716113 1.7947266 -0.9260331 0.3769493 0.019287845 0.9444 0.1702
-2.271541 -0.0013222306 1.7943883 -0.71303046 0.7009824 0.0145364385 0.9444 0.1716
-2.271541 -0.0013219595 -1.7943877 -0.7130416 0.7009705 -0.0145628955 0.6175 0.1709
2.2778199 -0.0077158418 -1.794726 0.92603064 0.3769547 -0.019297078 0.942 0.2113
2.271541 -0.0013219595 -1.7943877 0.7130369 0.70097554 -0.01455155 0.942 0.2126
2.271541 -0.0013222306 1.7943883 0.7130406 0.7009715 0.014563474 0.6149 0.212
2.140197 -0.0077161295 2.016106 0.046708193 0.47538242 0.8785385 0.6529 0.9914
2.1399868 -0.0013222465 2.0060062 0.029095514 0.8448345 0.5342361 0.6529 0.9927
-2.1399868 -0.0013222465 2.0060062 -0.029110096 0.84483707 0.5342312 0.027 0.9925
2.140197 -0.007715825 -2.0161054 0.046712596 0.47539604 -0.87853086 0.0292 0.6071
2.1715455 -0.0013219438 -2.0026188 0.15847306 0.83892626 -0.5206621 0.0245 0.6084
-2.2778199 -0.0077158418 -1.794726 -0.9260283 0.37696007 -0.019303259 0.6175 0.1696
-2.269436 -0.0013219557 -1.8451529 -0.7051617 0.7049133 -0.076447554 0.6127 0.1709
2.2778199 -0.007716113 1.7947266 0.9260281 0.37696072 0.019303719 0.6149 0.2107
2.269436 -0.0013222344 1.8451535 0.705159 0.7049161 0.07644579 0.6102 0.212
-2.140197 -0.0077161295 2.016106 -0.04671392 0.47539112 0.87853354 0.0271 0.9912
-2.1715455 -0.0013222463 2.0026193 -0.15847282 0.8389244 0.5206651 0.0223 0.9925
2.2756696 -0.007715838 -1.8466105 0.9208371 0.37554207 -0.10501047 0.9467 0.2113
2.269436 -0.0013219557 -1.8451529 0.70519125 0.7048698 -0.0765757 0.9467 0.2126
2.2638404 -0.007715833 -1.9106166 0.88429654 0.3845179 -0.26488778 0.9527 0.2114
2.2581477 -0.0013219512 -1.906356 0.67066765 0.71886885 -0.1828451 0.9527 0.2127
2.2434175 -0.0077133463 -1.9607656 0.87603694 0.32457983 -0.35666108 0.9581 0.2115
2.2389412 -0.0013219476 -1.9535652 0.63143396 0.7316429 -0.25688463 0.9579 0.2128
2.212242 -0.007715827 -1.9936182 0.52092606 0.4395476 -0.7317335 0.0185 0.6072
2.209593 -0.0013219452 -1.9844607 0.36257902 0.81015545 -0.4606351 0.0185 0.6085
2.2389412 -0.0013219476 -1.9535652 0.44564408 0.78896147 -0.42301437 0.0133 0.6086
2.1724494 -0.0077158255 -2.0126462 0.23827383 0.45822054 -0.8563058 0.0245 0.6071
-2.1724517 -0.0077158255 -2.0126462 -0.23836637 0.45827174 -0.8562526 0.6596 0.6073
-2.1715455 -0.0013219438 -2.0026188 -0.15871596 0.83886397 -0.5206884 0.6597 0.6086
-2.212242 -0.007715827 -1.9936182 -0.52085704 0.43965754 -0.7317166 0.6656 0.6074
-2.209593 -0.0013219452 -1.9844607 -0.3622101 0.81093997 -0.4595436 0.6656 0.6086
-2.2434175 -0.0077133463 -1.9607656 -0.6403121 0.47440684 -0.6041015 0.671 0.6075
-2.2387333 -0.0013219476 -1.953231 -0.43726984 0.8014467 -0.40801755 0.6708 0.6088
-2.2638404 -0.007715833 -1.9106166 -0.8836488 0.38534504 -0.26584584 0.6068 0.1696
-2.2581477 -0.0013219512 -1.906356 -0.66966754 0.71935743 -0.18458143 0.6068 0.1709
-2.2387333 -0.0013219476 -1.953231 -0.616993 0.7456545 -0.25163233 0.6016 0.1711
-2.2756696 -0.007715838 -1.8466105 -0.9208588 0.375508 -0.10494217 0.6128 0.1696
2.1724494 -0.007716129 2.0126467 0.23835354 0.45825788 0.8562635 0.6576 0.9914
2.1715455 -0.0013222463 2.0026193 0.15873054 0.8388408 0.52072144 0.6576 0.9927
2.212242 -0.0077161277 1.9936188 0.5208527 0.43965366 0.731722 0.6636 0.9914
2.209593 -0.0013222449 1.9844613 0.36266762 0.81003606 0.4607751 0.6636 0.9927
2.2434175 -0.0077136424 1.9607662 0.6418633 0.4655538 0.60932034 0.669 0.9915
2.2389412 -0.0013222425 1.9535658 0.44555545 0.7888867 0.42324713 0.6688 0.9928
2.2638404 -0.0077136387 1.9106172 0.8842914 0.38454324 0.26486826 0.6042 0.2107
2.2581477 -0.0013222389 1.9063566 0.6704193 0.71910524 0.18282686 0.6043 0.212
2.2389412 -0.0013222425 1.9535658 0.6311872 0.7318075 0.2570226 0.599 0.2121
2.2756696 -0.0077161165 1.8466111 0.9208585 0.37550944 0.10493986 0.6102 0.2107
-2.2756696 -0.0077136336 1.8466111 -0.92080194 0.3756299 0.10500508 0.9491 0.1702
-2.269436 -0.0013222344 1.8451535 -0.70505416 0.7050084 0.07656214 0.9491 0.1716
-2.2638404 -0.0077136387 1.9106172 -0.88425535 0.38461503 0.26488438 0.9551 0.1703
-2.2581477 -0.0013222389 1.9063566 -0.6705327 0.7190019 0.18281731 0.9551 0.1716
-2.2434175 -0.0077136424 1.9607662 -0.87603784 0.32457793 0.35666066 0.9605 0.1704
-2.2389412 -0.0013222425 1.9535658 -0.6314421 0.73163676 0.25688243 0.9603 0.1717
-2.212242 -0.0077161277 1.9936188 -0.5209259 0.43954766 0.73173356 0.0164 0.9912
-2.209593 -0.0013222449 1.9844613 -0.36257794 0.810155 0.4606366 0.0164 0.9925
-2.2389412 -0.0013222425 1.9535658 -0.445644 0.7889611 0.42301518 0.0112 0.9927
-2.1724494 -0.007716129 2.0126467 -0.23827225 0.45821872 0.8563071 0.0224 0.9912
2.140197 -0.10488275 -2.0161054 0.053393807 0 -0.9985736 0.0292 0.5929
-2.140197 -0.10488275 -2.0161054 -0.05339246 0 -0.9985736 0.655 0.5931
-2.2778199 -0.10488276 -1.794726 -0.99978566 0 -0.020705743 0.6175 0.1554
-2.2778199 -0.10488303 1.7947266 -0.99978554 0 0.020708008 0.9445 0.156
2.2778199 -0.10488303 1.7947266 0.99978566 0 0.020706572 0.6149 0.1964
2.2778199 -0.10488276 -1.794726 0.99978554 0 -0.020707805 0.9421 0.197
-2.140197 -0.104883045 2.016106 -0.053397324 0 0.99857336 0.027 0.977
2.140197 -0.104883045 2.016106 0.053396273 0 0.99857336 0.6529 0.9772
2.1724517 -0.10488275 -2.0126462 0.27295035 5.7605534e-06 -0.96202815 0.0244 0.5929
-2.2756696 -0.104882754 -1.8466105 -0.99372476 0 -0.111853465 0.6127 0.1554
2.2756696 -0.10488304 1.8466111 0.99372464 0 0.111854024 0.6102 0.1964
-2.1724494 -0.104883045 2.0126467 -0.27293777 0 0.9620317 0.0223 0.977
2.2756696 -0.104882754 -1.8466105 0.9937249 0 -0.11185163 0.9468 0.1971
2.2638404 -0.104882754 -1.9106166 0.959735 0 -0.28090712 0.9529 0.1971
2.2434175 -0.10488275 -1.9607656 0.9261455 0 -0.37716645 0.9584 0.1972
2.2434175 -0.10488275 -1.9607656 0.7253795 0 -0.6883492 0.0129 0.5931
2.212242 -0.10488275 -1.9936182 0.5881947 3.864969e-06 -0.8087193 0.0184 0.593
-2.1724517 -0.10488275 -2.0126462 -0.27293888 0 -0.96203136 0.6597 0.5931
-2.212242 -0.10488275 -1.9936182 -0.5881907 0 -0.80872226 0.6658 0.5932
-2.2434175 -0.10488275 -1.9607656 -0.7253786 0 -0.6883502 0.6713 0.5932
-2.2434175 -0.10488275 -1.9607656 -0.9261445 0 -0.3771689 0.6012 0.1555
-2.2638404 -0.104882754 -1.9106166 -0.9597331 0 -0.28091332 0.6066 0.1554
2.1724494 -0.104883045 2.0126467 0.27293003 0 0.96203387 0.6577 0.9772
2.212242 -0.104883045 1.9936188 0.58818054 0 0.80872965 0.6638 0.9772
2.2434175 -0.104883045 1.9607662 0.7253786 0 0.6883502 0.6692 0.9773
2.2434175 -0.104883045 1.9607662 0.9261451 0 0.3771674 0.5986 0.1965
2.2638404 -0.10488304 1.9106172 0.9597337 0 0.2809113 0.6041 0.1965
-2.2756696 -0.10488304 1.8466111 -0.9937248 0 0.111852534 0.9492 0.156
-2.2638404 -0.10488304 1.9106172 -0.9597343 0 0.28090918 0.9553 0.1561
-2.2434175 -0.104883045 1.9607662 -0.926145 0 0.37716758 0.9608 0.1562
-2.2434175 -0.104883045 1.9607662 -0.7253804 0 0.6883481 0.0108 0.9771
-2.212242 -0.104883045 1.9936188 -0.5881867 0 0.8087252 0.0162 0.977
2.140197 -0.10488275 -2.0161054 -2.2108298e-07 -1 -7.391072e-08 0.0305 0.5883
2.140197 -0.104883045 2.016106 2.2249698e-07 -1 -7.397178e-08 0.0305 0.2226
-2.140197 -0.10488275 -2.0161054 -2.3000894e-07 -1 -7.397167e-08 0.655 0.5883
-2.1715455 -0.0013219438 -2.0026188 -3.2853715e-09 1 7.553969e-08 0.6504 0.6146
-2.1399868 -0.0013221707 1.0030032 3.6408798e-09 1 7.553057e-08 0.64605004 0.8822
-2.1399868 -0.001322095 2.3841858e-07 -7.2817268e-09 1 7.544294e-08 0.64610004 0.79289997
-2.271541 -0.0013222306 1.7943883 2.8716507e-09 1 7.549732e-08 0.6623 0.9527
-2.2581477 -0.0013222389 1.9063566 1.8756337e-08 1 7.424106e-08 0.6619 0.9628
-2.2389412 -0.0013222425 1.9535658 -2.6992233e-09 1 7.542264e-08 0.6593 0.9671
-2.2387333 -0.0013219476 -1.953231 -1.2908817e-09 1 7.539739e-08 0.6597 0.6188
-2.2581477 -0.0013219512 -1.906356 -1.912643e-08 1 7.403978e-08 0.6624 0.6231
-2.271541 -0.0013219595 -1.7943877 -1.326633e-09 1 7.54827e-08 0.663 0.6332
-2.140197 -0.104883045 2.016106 2.2109876e-07 -1 -7.391084e-08 0.655 0.2226
-2.1724494 -0.104883045 2.0126467 2.7169386e-07 -1 -7.396202e-08 0.6597 0.2229
-2.2778199 -0.10488276 -1.794726 4.7252226e-07 -1 -7.62766e-08 0.675 0.5682
-2.2638404 -0.104882754 -1.9106166 5.471656e-07 -1 -3.2155544e-08 0.673 0.5787
-2.2434175 -0.10488275 -1.9607656 3.6577052e-07 -1 -7.2799516e-08 0.67 0.5833
-2.2434175 -0.104883045 1.9607662 9.753939e-10 -1 -7.181521e-08 0.67 0.2276
-2.2638404 -0.10488304 1.9106172 8.348359e-08 -1 -3.2155278e-08 0.673 0.2322
-2.2778199 -0.10488303 1.7947266 1.00619104e-07 -1 -7.74779e-08 0.675 0.2427
2.1399868 -0.0013219436 -2.0060055 -3.497066e-09 1 7.5537386e-08 0.0333 0.6143
1.0699934 -0.0013219436 -2.0060055 0 1 7.555947e-08 0.186525 0.6143
2.1399868 -0.0013220194 -1.0030026 7.3186297e-09 1 7.5530586e-08 0.033250004 0.703625
2.1715455 -0.0013219438 -2.0026188 -4.4193165e-09 1 7.5507764e-08 0.029 0.6146
2.1715455 -0.0013222463 2.0026193 -4.0983767e-09 1 7.5539795e-08 0.0289 0.9712
2.209593 -0.0013219452 -1.9844607 2.1924942e-09 1 7.550025e-08 0.0238 0.6162
2.209593 -0.0013222449 1.9844613 -2.9253415e-09 1 7.550926e-08 0.0236 0.9696
2.2389412 -0.0013222425 1.9535658 -4.7410698e-09 1 7.541252e-08 0.0196 0.967
2.2581477 -0.0013219512 -1.906356 1.0084334e-08 1 7.424143e-08 0.0174 0.623
2.2581477 -0.0013222389 1.9063566 -1.8756383e-08 1 7.424124e-08 0.0169 0.9627
2.1724517 -0.10488275 -2.0126462 -1.2236099e-07 -1 -7.396194e-08 0.0258 0.588
2.2434175 -0.10488275 -1.9607656 -7.5086206e-08 -1 -7.181523e-08 0.0155 0.5833
2.2638404 -0.104882754 -1.9106166 -1.0943312e-06 -1 -3.215555e-08 0.0125 0.5787
2.2778199 -0.10488276 -1.794726 -3.11846e-08 -1 -7.747793e-08 0.0104 0.5682
2.2778199 -0.10488303 1.7947266 -3.412511e-07 -1 -7.6276606e-08 0.0104 0.2427
2.2638404 -0.10488304 1.9106172 4.636768e-07 -1 -3.215529e-08 0.0125 0.2322
2.2434175 -0.104883045 1.9607662 -4.148716e-07 -1 -7.27995e-08 0.0155 0.2276
-2.1715455 -0.0013222463 2.0026193 -2.8938796e-10 1 7.550791e-08 0.6503 0.9712
-2.1399868 -0.0013222465 2.0060062 -1.1202057e-09 1 7.553738e-08 0.646 0.9715
-2.209593 -0.0013219452 -1.9844607 9.795888e-12 1 7.550905e-08 0.6557 0.6162
-2.209593 -0.0013222449 1.9844613 7.57613e-10 1 7.5502186e-08 0.6555 0.9696
-2.1724517 -0.10488275 -2.0126462 -4.8350466e-07 -1 -7.4319026e-08 0.6597 0.588
-2.212242 -0.104883045 1.9936188 -1.7547535e-09 -1 -7.423307e-08 0.6655 0.2246
-2.212242 -0.10488275 -1.9936182 -2.6332637e-07 -1 -7.5083506e-08 0.6655 0.5863
2.1724494 -0.104883045 2.0126467 2.1040908e-07 -1 -7.431909e-08 0.0258 0.2229
2.212242 -0.10488275 -1.9936182 2.6840053e-07 -1 -7.423317e-08 0.02 0.5863
2.212242 -0.104883045 1.9936188 -2.6401307e-07 -1 -7.508338e-08 0.02 0.2246
2.0851336 -2.0586345 -1.7682804 -0 -0.027431604 -0.99962366 0.8617 0.6486
1.922053 -2.0586348 -1.5036544 2.5574362e-05 -0.027431233 0.9996238 0.7914 0.6498
1.922053 -2.0586345 -1.7682804 -0 -1 -9.009634e-07 0.8372 0.6614
-1.8887318 -0.10204874 -1.4589179 0.99985594 -0.0169731 0 0.9079 0.9898
-2.1127014 -0.10204874 -1.4496636 0 -0.02749823 0.99962187 0.8706 0.9907
-2.085236 -2.0587397 -1.5034894 -0 -1 -8.9984064e-07 0.9187 0.686
1.8944749 -0.10205147 1.8223078 0 -0.027507199 0.99962157 0.9096 0.6475
1.8887093 -0.102051444 1.4589024 -0.9998558 -0.016978754 0 0.6849 0.6403
2.112709 -0.102051444 1.449628 -0 -0.027506985 -0.9996216 0.9571 0.6492
2.0852487 -2.0586872 1.5034697 -0 -1 -8.9970473e-07 0.7447 0.662
-1.9219353 -2.0586874 1.768466 0.9998558 -0.016978744 7.1781464e-08 0.7313 0.7022
-2.0852487 -2.0586872 1.5034697 -0.9998558 -0.016979968 7.838728e-08 0.8046 0.7075
-1.9219353 -2.0586874 1.768466 -0 -1 -8.9970536e-07 0.779 0.6887
2.061123 -0.35869616 -1.4659652 -0 -1 -8.088884e-08 0.7005 0.2904
2.073074 -0.10060937 -1.4659652 1 0 3.713123e-08 0.6995 0.2482
1.9579026 -0.35869616 -1.4659652 -0.7071065 -0.7071071 -4.5728168e-08 0.7005 0.3116
-1.945951 -0.10060959 1.4815222 1 0 -8.215885e-08 0.9874 0.0116
-1.9579026 -0.3586964 1.4815222 -0 -1 -8.088867e-08 0.9883 0.0625
-2.061123 -0.3586964 1.4815222 -0.7071171 -0.7070965 -7.477821e-08 0.986 0.0889
1.9063036 -0.3591769 -1.5458015 0 -1 0 0.5627 0.2177
1.9063036 -0.10294757 -1.5329472 0 0 1 0.564 0.0887
1.9063036 -0.102947555 -1.7389874 0 0 -1 0.5617 0.1397
1.9063036 -0.3591769 -1.5458015 0 -0.8493443 0.52783906 0.564 0.0509
-1.9063036 -0.35917714 1.7261378 0 -1 0 0.006 0.1983
-1.9063036 -0.35118863 1.5329478 -0 -0.4858811 -0.8740249 0.0083 0.0455
-1.9063036 -0.35917714 1.7261378 0 -0.8492707 0.52795774 0.0075 0.0959
2.2434175 -0.0077133463 -1.9607656 0.641999 0.46544224 -0.6092626 0.0131 0.6073
-2.2434175 -0.0077133463 -1.9607656 -0.873858 0.3312675 -0.35585684 0.6013 0.1697
2.2434175 -0.0077136424 1.9607662 0.87601453 0.32454127 0.35675144 0.5988 0.2108
-2.2434175 -0.0077136424 1.9607662 -0.64200073 0.4654421 0.6092609 0.011 0.9913
-2.269436 -0.0013222344 1.8451535 0 1 7.610503e-08 0.6624 0.9572
-2.269436 -0.0013219557 -1.8451529 -3.2760042e-08 1 7.6105515e-08 0.663 0.6287
-2.2756696 -0.104882754 -1.8466105 -0 -1 -1.8511312e-07 0.6747 0.5729
-2.2756696 -0.10488304 1.8466111 3.9121337e-06 -1 -1.8511241e-07 0.6747 0.238
-2.1399868 -0.0013219436 -2.0060055 -2.744303e-09 1 7.5559385e-08 0.6462 0.6143
-2.1399868 -0.0013220194 -1.0030026 7.2530564e-09 1 7.5473e-08 0.64615 0.7036
-1.0699934 -0.0013220194 -1.0030026 0 1 7.5501454e-08 0.492925 0.703625
2.1399868 -0.001322095 2.3841858e-07 -3.603979e-09 1 7.544295e-08 0.033200003 0.79295003
2.1399868 -0.0013221707 1.0030032 1.0896178e-08 1 7.5473004e-08 0.033150002 0.882275
2.269436 -0.0013219557 -1.8451529 3.276011e-08 1 7.610567e-08 0.0169 0.6286
2.269436 -0.0013222344 1.8451535 0 1 7.610519e-08 0.0163 0.9571
2.2756696 -0.104882754 -1.8466105 -0 -1 -1.8511348e-07 0.0107 0.5729
2.2756696 -0.10488304 1.8466111 -3.9121487e-06 -1 -1.8511312e-07 0.0108 0.238
0 -0.001322095 2.3841858e-07 0 1 7.54434e-08 0.33965 0.79295003
0 -0.0013221707 1.0030032 0 1 7.5501426e-08 0.33960003 0.88225
1.0699934 -0.0013221707 1.0030032 0 1 7.550144e-08 0.186375 0.882275
-1.0699934 -0.001322095 2.3841858e-07 0 1 7.544341e-08 0.49287504 0.792925
-1.0699934 -0.0013221707 1.0030032 0 1 7.550144e-08 0.49282503 0.882225
1.0699934 -0.001322095 2.3841858e-07 0 1 7.544341e-08 0.186425 0.79295003
1.0699934 -0.0013220194 -1.0030026 0 1 7.550144e-08 0.186475 0.703625
0 -0.0013219436 -2.0060055 0 1 7.555948e-08 0.33975 0.6143
-1.0699934 -0.0013219436 -2.0060055 0 1 7.555947e-08 0.492975 0.6143
0 -0.0013220194 -1.0030026 0 1 7.550143e-08 0.33969998 0.703625
2.1399868 -0.0013222465 2.0060062 -2.5225333e-09 1 7.555936e-08 0.0331 0.9716
-1.0699934 -0.0013222465 2.0060062 0 1 7.555947e-08 0.49277502 0.97152495
0 -0.0013222465 2.0060062 0 1 7.555947e-08 0.33955002 0.97155
1.0699934 -0.0013222465 2.0060062 0 1 7.555947e-08 0.18632501 0.971575
3 0 1 2
3 3 4 5
3 6 7 8
3 9 10 11
3 12 13 14
3 15 11 10
3 16 3 17
3 4 18 5
3 19 9 20
3 21 22 23
3 24 25 26
3 27 28 29
3 30 31 32
3 33 34 35
3 36 31 37
3 38 39 22
3 40 27 29
3 41 30 32
3 42 43 44
3 45 46 47
3 48 49 50
3 51 52 53
3 54 55 56
3 57 52 58
3 59 45 47
3 60 48 50
3 61 51 53
3 62 63 64
3 65 66 67
3 68 69 70
3 71 72 73
3 74 75 76
3 62 77 78
3 63 79 64
3 80 68 81
3 69 82 70
3 83 84 85
3 86 87 88
3 89 90 91
3 92 93 84
3 94 91 95
3 96 97 98
3 99 100 101
3 102 103 104
3 98 105 106
3 107 108 102
3 109 110 111
3 112 113 114
3 115 116 117
3 117 118 119
3 120 112 114
3 121 122 123
3 124 125 126
3 127 128 129
3 130 131 128
3 132 124 133
3 134 135 136
3 137 138 139
3 140 141 142
3 143 144 145
3 146 147 148
3 149 139 150
3 151 142 152
3 153 145 154
3 155 148 156
3 157 158 144
3 159 160 158
3 161 162 160
3 163 164 165
3 166 150 164
3 167 168 138
3 169 170 168
3 171 172 170
3 173 174 175
3 176 152 174
3 177 178 147
3 179 180 178
3 181 182 180
3 183 184 185
3 186 154 184
3 187 188 141
3 189 190 188
3 191 192 190
3 193 194 195
3 196 156 194
3 137 197 198
3 140 199 200
3 143 201 202
3 146 203 204
3 149 205 197
3 151 206 199
3 153 207 201
3 155 208 203
3 157 202 209
3 159 209 210
3 161 210 211
3 163 212 213
3 166 213 205
3 167 198 214
3 169 214 215
3 171 215 216
3 173 217 218
3 176 218 206
3 177 204 219
3 179 219 220
3 181 220 221
3 183 222 223
3 186 223 207
3 187 200 224
3 189 224 225
3 191 225 226
3 193 227 228
3 196 228 208
3 229 230 231
3 232 233 234
3 235 236 237
3 238 239 240
3 241 242 231
3 243 244 245
3 246 247 248
3 249 250 251
3 252 249 253
3 254 252 255
3 135 254 256
3 134 257 135
3 256 258 136
3 229 259 230
3 260 261 262
3 263 264 265
3 232 266 267
3 268 269 266
3 238 237 269
3 240 235 237
3 242 270 231
3 271 272 270
3 246 245 272
3 248 243 245
3 259 273 230
3 274 275 273
3 260 265 275
3 262 263 265
3 0 276 1
3 3 16 4
3 6 277 7
3 9 19 10
3 13 278 14
3 21 38 22
3 24 279 25
3 27 280 28
3 30 37 31
3 35 281 33
3 42 282 43
3 45 283 46
3 48 284 49
3 51 58 52
3 56 285 54
3 62 78 63
3 65 286 66
3 68 80 69
3 71 287 72
3 75 288 76
3 83 92 84
3 86 289 87
3 89 290 90
3 92 291 93
3 94 89 91
3 96 292 97
3 99 293 100
3 102 108 103
3 98 97 105
3 107 294 108
3 109 295 110
3 112 296 113
3 115 297 116
3 117 116 118
3 120 298 112
3 121 299 122
3 124 300 125
3 127 130 128
3 130 301 131
3 132 300 124
3 135 256 136
3 139 149 137
3 142 151 140
3 145 153 143
3 148 155 146
3 150 166 149
3 152 176 151
3 154 186 153
3 156 196 155
3 144 143 157
3 158 157 159
3 160 159 161
3 165 302 163
3 164 163 166
3 138 137 167
3 168 167 169
3 170 169 171
3 175 303 173
3 174 173 176
3 147 146 177
3 178 177 179
3 180 179 181
3 185 304 183
3 184 183 186
3 141 140 187
3 188 187 189
3 190 189 191
3 195 305 193
3 194 193 196
3 137 149 197
3 140 151 199
3 143 153 201
3 146 155 203
3 149 166 205
3 151 176 206
3 153 186 207
3 155 196 208
3 157 143 202
3 159 157 209
3 161 159 210
3 163 302 212
3 166 163 213
3 167 137 198
3 169 167 214
3 171 169 215
3 173 303 217
3 176 173 218
3 177 146 204
3 179 177 219
3 181 179 220
3 183 304 222
3 186 183 223
3 187 140 200
3 189 187 224
3 191 189 225
3 193 305 227
3 196 193 228
3 230 241 231
3 235 306 236
3 239 307 240
3 243 308 244
3 247 309 248
3 310 311 312
3 313 314 253
3 252 253 255
3 254 255 256
3 134 315 257
3 258 316 136
3 261 317 262
3 263 318 264
3 232 268 266
3 268 238 269
3 238 240 237
3 242 271 270
3 271 246 272
3 246 248 245
3 259 274 273
3 274 260 275
3 260 262 265
3 319 320 321
3 319 322 320
3 234 233 323
3 313 324 314
3 313 325 324
3 326 327 328
3 328 312 319
3 328 327 312
3 327 310 312
3 324 328 319
3 324 325 328
3 325 326 328
3 314 321 329
3 314 324 321
3 324 319 321
3 323 330 331
3 323 233 330
3 233 267 330
3 320 323 331
3 320 322 323
3 322 234 323
3 321 332 329
3 321 320 332
3 320 331 332
3 312 322 319
3 312 311 322
3 311 234 322
3 251 325 313
3 251 250 325
3 250 326 325
3 311 310 232
3 232 267 233
3 234 311 232
3 253 249 251
3 253 251 313
3 314 329 253
